<svg id="Group_6977" data-name="Group 6977" xmlns="http://www.w3.org/2000/svg" xmlns:xlink="http://www.w3.org/1999/xlink" width="113.127" height="40" viewBox="0 0 113.127 40">
  <defs>
    <clipPath id="clip-path">
      <rect id="Rectangle_1279" data-name="Rectangle 1279" width="113.127" height="40" fill="none"/>
    </clipPath>
  </defs>
  <g id="Group_6976" data-name="Group 6976" clip-path="url(#clip-path)">
    <path id="Path_140" data-name="Path 140" d="M13.27,44.291h4.08l-2.063-4.1Zm-.435.788L11.945,46.9a5.981,5.981,0,0,0-.559,1.913c0,1.17.724,1.666,1.761,1.878v.411H7.55V50.74c.7-.165,2.142-1.425,3.335-3.672l5.541-10.5c.059-.119.4-.8.53-.8.258,0,.548.576.693.865l6.027,11.312c1.078,2,1.731,2.528,2.454,2.676v.48H18.469v-.412c.7-.153,1.251-.25,1.251-1.159a5.961,5.961,0,0,0-.792-2.262l-1.144-2.194Z" transform="translate(-6.84 -32.408)" fill="#3f2016"/>
    <path id="Path_141" data-name="Path 141" d="M604.929,50.735c2.522,0,4.19-2.2,4.19-7.111s-1.667-7.111-4.19-7.111-4.191,2.2-4.191,7.111,1.667,7.111,4.191,7.111m.058-14.963c4.463,0,8.733,2.7,8.733,7.852s-4.27,7.852-8.733,7.852-8.734-2.7-8.734-7.852,4.27-7.852,8.734-7.852" transform="translate(-540.183 -32.408)" fill="#3f2016"/>
    <path id="Path_142" data-name="Path 142" d="M559.437,213.763a2.34,2.34,0,0,0,1.983-2.664c-.084.179-.3.609-.395.753s-.43.072-.263-.2a2.751,2.751,0,0,0,.395-1.565c-.108-.274-.192-.334-.215-.012a1.377,1.377,0,0,1-.812,1.016,3.575,3.575,0,0,0-.024-1.984c-.25-.346-.275-.2-.275.012s.1.812-.2,1.075c-.143.179-.263.167-.2-.144a2.755,2.755,0,0,0-.441-1.863,1.118,1.118,0,0,1-.275-.657c0-.24-.119-.514-.228-.191a1.649,1.649,0,0,0,.168,1.206.952.952,0,0,1,.1.908c-.155-.155-1.123-.9-1.207-.979s-.2,0-.095.12.776.621.56,1.135a2.65,2.65,0,0,0-.25.884,2.852,2.852,0,0,0-.609-.717c-.119-.108-.263-.048-.107.119a.832.832,0,0,1,.143.848,1,1,0,0,0-.12.514c-.012.12-.167.191-.226.048a.877.877,0,0,0-.443-.454c-.275-.144-.166.1-.024.215a1.974,1.974,0,0,1,.263,1.063,2.2,2.2,0,0,0,1.959,1.589,1.236,1.236,0,0,1-.526-.418,1.408,1.408,0,0,0-.6-.776c-.429-.263-.359-.46-.119-.442a.5.5,0,0,1,.394.155c.12.131.1.12.084-.048s-.108-.418-.108-.561.169-.351.275-.036a2.934,2.934,0,0,0,.442.944c.108.084.143-.024.1-.119a2.708,2.708,0,0,1-.227-1.278c.107-.395.239-.3.263-.084a1.092,1.092,0,0,0,.119.478c.084.144.24.239.263.036a2.034,2.034,0,0,0-.108-.789c-.1-.311-.108-.3-.1-.478s.131-.214.346.12a1.685,1.685,0,0,1,.1,1.636c-.1.2.047.179.131.06a1.769,1.769,0,0,1,.2-.239c.107-.12.227.011.167.227s-.1.119-.131.263.108.179.191.048a1.565,1.565,0,0,0,.215-.395c.06-.179.155-.228.155.12a1.684,1.684,0,0,1-.681,1.5" transform="translate(-503.916 -187.706)" fill="#3f2016"/>
    <path id="Path_143" data-name="Path 143" d="M251.694,53.719c-.706-.205-1.613-.4-2.766-.616a13.333,13.333,0,0,1-2.522-.67c.538.157,1.119.282,1.728.4a19.951,19.951,0,0,1,3.56.889m-7.477.9.167-.565.347.139a6.022,6.022,0,0,0,2.521,4.014,5.9,5.9,0,0,1-3.036-3.588m11.359-3.531a3.431,3.431,0,0,1,2.161,3.43c0,3.755-4.2,5.307-7.348,5.307a17.843,17.843,0,0,1-6.31-1.036,18.635,18.635,0,0,0,5.531.764c3.155,0,7.431-1.557,7.431-5.391a3.446,3.446,0,0,0-1.464-3.075m-3.671-6.169a4.26,4.26,0,0,0-.983-.113c-1.693,0-3.222.881-3.222,2.712a1.559,1.559,0,0,0,.527,1.331c-1.013-.425-1.224-.912-1.224-1.686,0-1.766,1.47-2.63,3.14-2.63a4.137,4.137,0,0,1,1.763.386m5.043.142-1.182,4.033-.3-.116a5.607,5.607,0,0,0-.215-.837l.959-3.272.741.192" transform="translate(-221.126 -40.344)" fill="#3f2016" fill-rule="evenodd"/>
    <path id="Path_144" data-name="Path 144" d="M139.276,194.435a1.788,1.788,0,0,0,.7.292v.534h-7.718v-.282c1.04-.024,5.665.01,6.94.01h.082Z" transform="translate(-119.817 -176.151)" fill="#3f2016" fill-rule="evenodd"/>
    <path id="Path_145" data-name="Path 145" d="M114.587,39.565c0-.094.078-.174.227-.164.237.016.531.615.67.893l6.027,11.312a8.224,8.224,0,0,0,1.513,2.177c-1.092-.375-1.764-1.728-2.22-2.571L114.778,39.9c-.034-.067-.071-.131-.191-.338" transform="translate(-103.812 -35.695)" fill="#3f2016" fill-rule="evenodd"/>
    <path id="Path_146" data-name="Path 146" d="M21.1,196.092a3.619,3.619,0,0,0,.7.206v.464H16.14v-.289c.693-.027,3.927.017,4.878.017H21.1Z" transform="translate(-14.622 -177.652)" fill="#3f2016" fill-rule="evenodd"/>
    <path id="Path_147" data-name="Path 147" d="M56.51,136.506H52.283l-.881,1.808a5.948,5.948,0,0,0-.557,1.9,1.669,1.669,0,0,0,.484,1.277,1.568,1.568,0,0,1-1.18-1.632,5.888,5.888,0,0,1,.549-1.867l.857-1.76h4.814Z" transform="translate(-45.433 -123.422)" fill="#3f2016" fill-rule="evenodd"/>
    <path id="Path_148" data-name="Path 148" d="M418.247,58.786a1.982,1.982,0,0,0,.7.153V59.4h-8.067v-.279c1.242-.022,5.9.007,7.288.007h.082Zm.477-13.432a2.221,2.221,0,0,0-.43-.045c-.973,0-1.251.649-1.251,1.507v8.09c0,1.459.045,2.8.69,3.513-1.563-.483-1.387-2.773-1.387-3.868v-8.09c0-.841.265-1.425,1.17-1.425a2.883,2.883,0,0,1,1.209.317m2.968-.879h.589l1.2,4.126h-.51a2.119,2.119,0,0,1-.159-.273ZM407.028,48.6h-.51l.244-.834c1.02-1.143,2.776-2.729,4.17-2.729a1.127,1.127,0,0,1,.816.273h-.037c-1.623,0-3.755,2.109-4.683,3.292" transform="translate(-368.29 -40.293)" fill="#3f2016" fill-rule="evenodd"/>
    <path id="Path_149" data-name="Path 149" d="M646.449,52.253c0,3.347.774,5.447,2.074,6.446-1.7-.7-2.771-2.864-2.771-6.8,0-4.907,1.664-7.057,4.137-7.057a3.487,3.487,0,0,1,1.571.35,3.889,3.889,0,0,0-.792-.078c-2.55,0-4.219,2.225-4.219,7.139" transform="translate(-585.027 -40.624)" fill="#3f2016" fill-rule="evenodd"/>
    <path id="Path_150" data-name="Path 150" d="M665.927,50.929a7.353,7.353,0,0,1,4.139,6.81c0,5.169-4.289,7.881-8.763,7.881a10.443,10.443,0,0,1-3.812-.7,10.734,10.734,0,0,0,3.033.431c4.5,0,8.845-2.734,8.845-7.964a7.386,7.386,0,0,0-3.442-6.456" transform="translate(-595.663 -46.14)" fill="#3f2016" fill-rule="evenodd"/>
    <path id="Path_151" data-name="Path 151" d="M802.62,57.815a2.361,2.361,0,0,0,.7.3v.395h-5.656v-.289c.693-.027,3.927.017,4.878.017h.082Zm-1.6-10.946v6.583c0,1.319.224,3.206,1.316,4.152-1.759-.663-2.013-3.055-2.013-4.507V46.141ZM815.51,43.5c.232-.008.465-.014.7-.014v.371c-1.878.51-2.5,3.036-2.5,4.682v9.6c0,.579-.278.741-.441.741h-.047c-.135,0-.328-.166-.505-.345a.853.853,0,0,0,.3-.751v-9.6c0-1.582.576-4.1,2.5-4.62Zm-12.115-.011c.1,0,.2,0,.294,0l8.3,8.085v.289Z" transform="translate(-722.651 -39.396)" fill="#3f2016" fill-rule="evenodd"/>
    <path id="Path_152" data-name="Path 152" d="M1022.24,53.719c-.706-.205-1.612-.4-2.766-.616a13.337,13.337,0,0,1-2.522-.67c.537.157,1.119.282,1.728.4a19.973,19.973,0,0,1,3.56.889m-7.477.9.167-.565.347.139a6.027,6.027,0,0,0,2.52,4.014,5.9,5.9,0,0,1-3.035-3.588m11.359-3.531a3.432,3.432,0,0,1,2.161,3.43c0,3.755-4.2,5.307-7.349,5.307a17.853,17.853,0,0,1-6.311-1.036,18.643,18.643,0,0,0,5.532.764c3.155,0,7.431-1.557,7.431-5.391a3.447,3.447,0,0,0-1.464-3.075m-3.67-6.169a4.272,4.272,0,0,0-.985-.113c-1.692,0-3.222.881-3.222,2.712a1.56,1.56,0,0,0,.527,1.331c-1.012-.425-1.223-.912-1.223-1.686,0-1.766,1.47-2.63,3.139-2.63a4.147,4.147,0,0,1,1.764.386m5.042.142-1.182,4.033-.3-.116a5.571,5.571,0,0,0-.217-.837l.959-3.272.741.192" transform="translate(-919.212 -40.344)" fill="#3f2016" fill-rule="evenodd"/>
    <path id="Path_153" data-name="Path 153" d="M46.1.8c-.684-.042-1.39.045-1.985.05l.2-.037-.6.03L43.724.8C42.733.82,41.5.766,41.139.849l.116-.084L40.2.831l.6-.056-.172,0c-.541.016-.646.007-1.531.021l.1,0-.058,0c-.76.015-1.419.037-1.564.036l.107-.03a3.9,3.9,0,0,0-.548.014l.156-.047c-.491,0-.46-.019-.142-.058l-.315,0a4.969,4.969,0,0,1,.57-.03l.285-.028c-.456.008-.94,0-1.436-.015L35.522.55a5.075,5.075,0,0,1-1.566.2l.355-.057c-.26-.023-.431-.03-.558-.03.511-.043,1.062-.091,1.524-.136A21.052,21.052,0,0,0,32.34.607c.05-.015.4-.02.5-.051-1.484-.028-3.037.115-4.184.134-.484-.053.954-.034.717-.113a13.921,13.921,0,0,0-1.438.031c.225-.1-1.38-.006-.24-.1C25.53.46,23.137.556,20.943.615c.108-.031.108-.057.015-.078A18.692,18.692,0,0,0,23.2.436c-.484-.053-1.151.071-1.29.04A3.5,3.5,0,0,0,22.662.4a9.485,9.485,0,0,0-1.44.034l.243.027a16.324,16.324,0,0,1-2.249.153c-.539-.063,0-.053.014-.131-.351.03-1.477-.054-1.839.028l.9.007c-.628.022-1.219.021-1.656.049a.546.546,0,0,1,.213-.041c-.5.025-1.138.018-1.393.07l-.14-.084a7.049,7.049,0,0,0,1.338,0A8.187,8.187,0,0,0,15.271.476C17.006.452,17.03.322,18.5.376L18.249.4c.918.063,1.86-.041,2.661-.039C20.686.347,20.637.316,20.743.3c1.776.065,3.519.015,5.541.055l.609-.082.038.063c.987.027.212-.089.851-.082-.243,0-.2.01-.249.026A7.567,7.567,0,0,1,28.814.32c-.307.067-1.24.024-.952.113A21.97,21.97,0,0,0,30.953.251C33.08.312,35.716.217,37.5.2c.246.026-.152.021-.06.042.709-.088,2.374.06,2.384-.018a2.486,2.486,0,0,1,.579.1c.266-.022.562-.037.878-.049L41.326.27,40.837.218A2.538,2.538,0,0,1,41.481.2a.617.617,0,0,0-.247.026c.286.017.6.03.967.04l-.025,0c1.438-.023,3.092,0,4.4-.088-.644.044-.046.082-.085.112a28.391,28.391,0,0,1,3.452-.1c0,.026.094.047-.056.067L50.628.2l-.1.031h.055A8.976,8.976,0,0,1,51.741.183,1.165,1.165,0,0,1,51.9.212l.479-.018C52.168.157,52.122.125,52.84.1l.2.042c-.145-.005-.342-.021-.544-.011-.258.03-.085.043.095.054C53.206.163,53.77.145,54.2.173c-.16,0-.274.01-.356.016l.475-.008C54.426.1,53.533.118,53.442.1c1.181.017,2.6.14,3.7.084l-.1.031c1.4-.071.816.153,1.93.019.588.021-.212.088.677.095.25,0,.1-.031.06-.042,1.091-.029.481.079,1.487,0l-.217.088c1.2-.06,2.458-.215,3.5-.176a8.069,8.069,0,0,1-.959.113C64.915.189,66.881.3,68.179.231c-.388-.058.615-.135-.217-.183a4.125,4.125,0,0,1-1.051.041c.72-.192,3.011.093,3.23-.073l.192.068c.2-.01.7-.061.355-.082l1.434.044a10.376,10.376,0,0,1-1.9.1c-.408.072.587.048.226.131a9.5,9.5,0,0,1,1.583.024c-.45-.1.988-.134.944-.181A10.886,10.886,0,0,0,74.3.052c.574-.009,1.892.07,2.813.037-.348.031-.9.071-.86.134A2.744,2.744,0,0,1,77.289.26c-1.6.133-.516-.167-1.969-.081a8.1,8.1,0,0,1-1.5.128c.341.047.19.068.331.126.915-.176,2.381-.018,3.579-.1a3.922,3.922,0,0,1,1.268-.18L78.011.095c1.08.049.253-.051,1.144-.071L78.8.081A5.81,5.81,0,0,0,79.85.041l-.462.088A3.092,3.092,0,0,0,80.233.1c.077.021.1.038.1.054a2.97,2.97,0,0,1,.542-.021c-.2.011-.345,0-.35.031,1.312-.021.3.095,1.12.086-.128.021.1.046.393.057A12.032,12.032,0,0,1,84.059.071L85.151.018c-.223.012.017.049.339.064h-.053c.348.021-.415.15.631.11L86.6.152c-.065.006.018.025.065.035L87.232.15C88.1.279,88.869.076,89.887.14c-.294-.011-.741,0-.551.041a3.745,3.745,0,0,0,.652-.02l-.053.015L91.878.091c-.157.047-1.244.05-.76.1A7.048,7.048,0,0,0,92.312.186C92.266.149,91.625.117,92.274.1c.081.018.7.056.408.082.665-.037,1.631-.06,2.226-.125C95.1.07,94.8.086,94.7.09L94.654.08a2.6,2.6,0,0,1-.848.056,8.133,8.133,0,0,0,1.823.05l-1.1.082c1.858.164,4.359-.014,6.2-.016-.541-.037-.99,0-.928-.1,1.144-.045.992-.024,2.132-.044l-.1.005c.589.048,1.393-.044,1.78.04-.257.051-.838-.049-.85.056L104.2.2c-.452.062-1.436.008-1.984.023-.395-.006.793-.014.606-.082a11.731,11.731,0,0,0-2.3.169c-.4.072.584.073.832.074a22.6,22.6,0,0,1,3.432-.109l.731.079a5.075,5.075,0,0,1,1.566-.2l-.355.057c.26.022.431.03.558.03-.512.043-1.062.091-1.524.136A21.024,21.024,0,0,0,108.691.3c-.05.015-.4.02-.5.051,1.484.028,3.037-.115,4.185-.134.484.053-.954.035-.717.114A13.885,13.885,0,0,0,113.094.3c-.225.1,1.38.005.24.1,2.168.045,4.561-.05,6.755-.109-.109.031-.109.057-.015.079a18.837,18.837,0,0,0-2.243.1c.484.053,1.151-.071,1.29-.039a3.568,3.568,0,0,0-.751.076,9.387,9.387,0,0,0,1.44-.033l-.243-.027A16.3,16.3,0,0,1,121.815.3c.539.063,0,.052-.014.131C122.153.4,123.278.48,123.64.4l-.9-.007c.628-.022,1.218-.022,1.656-.049a.563.563,0,0,1-.213.04c.5-.025,1.137-.018,1.392-.071l.14.084a7.089,7.089,0,0,0-1.337,0,8.255,8.255,0,0,0,1.377.034c-1.735.023-1.758.153-3.229.1l.251-.026c-.918-.063-1.86.041-2.661.038.224.017.273.048.168.062C118.513.541,116.77.59,114.747.55l-.609.082L114.1.57c-.987-.028-.212.088-.85.082.243,0,.2-.011.249-.026a7.634,7.634,0,0,1-1.281-.038c.307-.068,1.24-.024.952-.114a21.907,21.907,0,0,0-3.091.183c-2.127-.061-4.764.034-6.55.047-.246-.027.152-.021.06-.042C102.88.75,101.214.6,101.2.68a2.483,2.483,0,0,1-.578-.1c-.453.037-1,.056-1.574.066l.423-.021L99.429.614l-.6.031.025,0c-1.437.022-3.091,0-4.4.087.644-.044.046-.082.085-.111a28.4,28.4,0,0,1-3.452.1C91.1.7,91,.679,91.15.658L90.4.709l.1-.031c-1.336-.024-2.791.115-3.671.057.542-.015.547-.041.6-.082-.957,0-1.859,0-2.976.042.059-.008.1-.017.1-.026-.293-.011-.645.02-.945.035L83.573.641c-.57.029-1.31,0-1.988.047-.265-.069-1.647.063-2.429.035-.3.014.653-.072-.189-.069-.121.136-1.093,0-1.158.15L77.074.75l-.163.073a13.045,13.045,0,0,0-1.882.018c.047-.016.148-.021.1-.031-.3.015-.995.024-.456.062-.5,0-2.185.033-1.426-.044a5,5,0,0,0,.938-.008C74.146.756,73.4.78,73.216.712c-.024.007-.123.017-.193.028L72.916.7c-.931.069-1.879.019-2.557.108A1.929,1.929,0,0,0,69.836.78l-.013.079-.992,0L69.3.743C68.208.72,67.444.849,66.552.868c-.23-.131-1.742.05-2.516-.066l.7-.035C63.243.79,63,.712,61.615.757c1.18.044,1.186.017,2.9.124-1.725-.054-2.98.074-4.559,0,.1-.031.5-.051.115-.083-.308.067-1.487,0-1.254.076-.49-.027-.576-.1-.876-.111l-.9.053a.293.293,0,0,1-.067.021l-1.1.055c.222-.011-.017-.049-.339-.063h.054c-.076,0-.1-.015-.1-.027-2.447-.082-4.657.156-7.174.086l.054-.042L47.787.9c.3-.033-.357-.045-.4-.079l-1.8.091c-.04-.037.066-.12.508-.1" transform="translate(-13.835)" fill="#3f2016"/>
    <path id="Path_154" data-name="Path 154" d="M23.97,248.115c.63.043,1.28-.045,1.829-.049l-.186.036.552-.031-.007.052c.915-.024,2.048.03,2.382-.053l-.107.083.97-.066-.556.057.159,0c.5-.017.595-.008,1.411-.022l-.089,0,.053,0c.7-.015,1.308-.037,1.441-.036l-.1.031a3.31,3.31,0,0,0,.5-.015l-.143.047c.451,0,.423.019.131.058h.29a4.245,4.245,0,0,1-.525.03l-.263.028c.421-.007.866,0,1.323.015l.674.079a4.324,4.324,0,0,1,1.442-.2l-.328.057c.24.022.4.03.515.029-.472.043-.978.092-1.4.136a17.846,17.846,0,0,0,2.7-.084c-.047.015-.366.021-.463.051,1.367.029,2.8-.115,3.855-.134.446.053-.88.035-.66.113a12.048,12.048,0,0,0,1.325-.031c-.208.1,1.27.005.221.1,2,.045,4.2-.05,6.221-.109-.1.031-.1.057-.015.078a15.986,15.986,0,0,0-2.066.1c.446.053,1.061-.071,1.189-.04a3.071,3.071,0,0,0-.692.077,8.05,8.05,0,0,0,1.326-.034l-.224-.026a13.68,13.68,0,0,1,2.073-.153c.5.063,0,.052-.014.13a11.24,11.24,0,0,1-1.548.118c.206.017.252.047.154.062-1.635-.066-3.241-.016-5.1-.056l-.561.082-.035-.063c-.909-.028-.2.088-.783.082.224,0,.183-.01.229-.026a6.348,6.348,0,0,1-1.18-.038c.283-.067,1.142-.024.877-.113a18.66,18.66,0,0,0-2.848.182c-1.958-.061-4.387.034-6.032.047-.227-.026.139-.021.055-.041-.652.087-2.187-.061-2.2.017a2.088,2.088,0,0,1-.533-.1c-.244.022-.518.037-.809.049l-.04.009.452.053a2.159,2.159,0,0,1-.594.02.549.549,0,0,0,.227-.025c-.263-.018-.556-.031-.891-.041l.024,0c-1.324.023-2.848,0-4.049.088.593-.044.042-.082.079-.112a24.232,24.232,0,0,1-3.18.1c0-.027-.086-.047.052-.068l-.686.051.092-.031h-.05a7.62,7.62,0,0,1-1.067.047.921.921,0,0,1-.147-.028l-.441.018c.194.037.237.069-.424.092l-.18-.042a4.83,4.83,0,0,0,.5.012c.237-.03.079-.043-.087-.054a14.265,14.265,0,0,1-1.484.013c.148,0,.253-.01.328-.016l-.437.008c-.1.083.721.063.806.085-1.089-.018-2.4-.14-3.408-.084l.1-.031c-1.289.071-.752-.153-1.778-.018-.542-.022.2-.089-.623-.1-.231,0-.1.031-.054.042a13.477,13.477,0,0,0-1.37,0l.2-.088c-1.105.06-2.264.215-3.219.177a6.608,6.608,0,0,1,.883-.113c-1.293.122-3.1.015-4.3.081.357.057-.566.134.2.183a3.5,3.5,0,0,1,.968-.041c-.663.192-2.773-.093-2.976.073l-.176-.068c-.183.01-.649.061-.327.082L0,248.875a8.8,8.8,0,0,1,1.747-.1c.376-.072-.54-.047-.208-.131-.884.113-.544-.048-1.457-.024.414.1.917-.427,1.541-.515a1.663,1.663,0,0,0,.482.03l.012-.079h.913l-.428.114c1,.023,1.707-.106,2.528-.125.212.131,1.6-.05,2.317.066l-.643.035c1.374-.024,1.593.055,2.873.011-1.086-.044-1.093-.017-2.675-.124,1.589.054,2.745-.074,4.2,0-.1.031-.463.051-.106.083.285-.067,1.37,0,1.155-.076.452.026.53.1.807.111l.83-.053a.228.228,0,0,1,.061-.021l1.012-.055c-.2.012.016.049.312.063h-.049c.07,0,.092.015.092.027,2.254.082,4.289-.155,6.608-.086l-.05.041.542-.051c-.281.033.328.045.365.079l1.657-.091c.037.037-.061.12-.468.1" transform="translate(-0.001 -224.689)" fill="#3f2016"/>
    <path id="Path_155" data-name="Path 155" d="M671.967,248.816c-.631-.043-1.281.044-1.829.049l.187-.036-.552.03.006-.052c-.914.024-2.048-.03-2.382.053l.108-.083-.97.066.556-.056-.158,0c-.5.017-.595.007-1.411.022l.089-.005-.053,0c-.7.014-1.307.036-1.442.036l.1-.031a3.208,3.208,0,0,0-.5.015l.144-.047c-.452,0-.423-.02-.131-.058l-.291,0a4.228,4.228,0,0,1,.525-.03l.263-.028c-.42.007-.866,0-1.322-.016l-.675-.079a4.28,4.28,0,0,1-1.441.2l.327-.057c-.24-.022-.4-.03-.515-.029.472-.043.979-.092,1.4-.136a17.862,17.862,0,0,0-2.7.083c.047-.015.366-.02.463-.051-1.367-.028-2.8.115-3.854.134-.446-.053.879-.035.66-.114a11.852,11.852,0,0,0-1.325.031c.208-.1-1.27-.005-.221-.1-2-.045-4.2.05-6.221.109.1-.031.1-.057.014-.079a16,16,0,0,0,2.066-.1c-.446-.053-1.06.071-1.189.04a3.084,3.084,0,0,0,.693-.077,7.965,7.965,0,0,0-1.327.034l.224.026a13.777,13.777,0,0,1-2.073.153c-.5-.063,0-.052.013-.131-.324.031-1.36-.054-1.693.029l.826.006c-.579.022-1.45.015-1.33.008-.457.025.171-.2,1.525-.148l-.23.025c.845.063,1.712-.041,2.451-.038-.206-.018-.252-.048-.154-.062,1.635.066,3.242.016,5.1.056l.56-.082.035.063c.91.028.2-.089.784-.082-.224,0-.184.01-.23.025a6.39,6.39,0,0,1,1.18.039c-.283.067-1.142.024-.877.113a18.659,18.659,0,0,0,2.848-.183c1.957.061,4.387-.034,6.032-.047.227.027-.14.021-.056.042.653-.088,2.187.061,2.2-.017a2.138,2.138,0,0,1,.533.1c.244-.021.518-.037.808-.048l.04-.009-.451-.053a2.206,2.206,0,0,1,.594-.021.54.54,0,0,0-.227.026c.263.018.555.031.89.04l-.024,0c1.324-.022,2.848,0,4.05-.087-.593.044-.042.082-.078.111a24.236,24.236,0,0,1,3.179-.1c0,.026.086.047-.052.068l.687-.051-.092.031h.05a7.5,7.5,0,0,1,1.067-.048.882.882,0,0,1,.147.029l.441-.018c-.195-.037-.237-.07.424-.093l.179.042a4.819,4.819,0,0,0-.5-.011c-.238.029-.079.043.087.053a14.666,14.666,0,0,1,1.484-.013c-.148,0-.253.01-.328.017l.437-.008c.1-.083-.721-.064-.807-.085,1.089.017,2.4.139,3.408.084l-.1.031c1.289-.071.752.152,1.778.018.542.022-.2.089.623.095.231,0,.1-.031.055-.041a13.461,13.461,0,0,0,1.37,0l-.2.088c1.106-.06,2.265-.215,3.22-.176a6.761,6.761,0,0,1-.883.113c1.294-.122,3.1-.015,4.3-.081-.357-.058.567-.134-.2-.183a3.536,3.536,0,0,1-.968.04c.664-.192,2.774.093,2.976-.073l.176.068c.183-.011.649-.062.328-.083l1.32.044a8.723,8.723,0,0,1-1.747.1c-.376.073.541.048.208.131.884-.114.544.047,1.458.023-.414-.1-.918.427-1.542.516a1.656,1.656,0,0,0-.481-.03l-.012.078h-.913l.428-.114c-1-.023-1.706.107-2.529.126-.211-.131-1.6.049-2.317-.066l.644-.036c-1.374.024-1.593-.055-2.874-.01,1.087.043,1.093.017,2.675.124-1.588-.055-2.744.073-4.2,0,.1-.031.463-.051.107-.083-.285.067-1.371,0-1.156.076-.451-.027-.53-.1-.806-.111l-.83.053a.275.275,0,0,1-.062.021l-1.012.056c.2-.011-.015-.049-.312-.064h.049c-.07,0-.092-.014-.092-.027-2.254-.081-4.289.156-6.607.086l.049-.042-.541.052c.28-.033-.329-.046-.365-.079l-1.657.091c-.037-.037.06-.119.468-.1" transform="translate(-584.229 -224.689)" fill="#3f2016"/>
    <path id="Path_156" data-name="Path 156" d="M636.7,260.736a2.071,2.071,0,0,0,.481-.037l-.049.028.145-.023,0,.039a2.4,2.4,0,0,0,.625-.04l-.028.063.255-.05-.146.042.041,0c.13-.012.156-.005.371-.017l-.024,0,.014,0c.184-.011.344-.027.379-.027l-.026.024a.319.319,0,0,0,.133-.011l-.037.035c.118,0,.111.015.034.044l.076,0a.4.4,0,0,1-.138.022l-.07.021a2.182,2.182,0,0,1,.348.012l.177.059c.159-.053.092-.159.379-.146l-.085.042a.525.525,0,0,0,.134.022c-.124.032-.257.069-.368.1.163.091.47-.044.71-.063-.012.011-.1.015-.121.038a8.019,8.019,0,0,0,1.013-.1c.117.04-.231.026-.174.085.143-.022.305.028.348-.023-.055.074.334,0,.058.076a11.436,11.436,0,0,0,1.635-.082c-.027.024-.027.044,0,.059a1.521,1.521,0,0,0-.542.076c.117.04.278-.053.312-.03-.06.019-.179.018-.182.057.154.044.241-.018.349-.025l-.059-.02c.338-.053.186-.136.544-.115.131.047,0,.039,0,.1.086-.023.357.041.445-.021l-.217,0a1.806,1.806,0,0,1,.349-.006c.121-.019-.044.152-.4.111l.06-.019a2.955,2.955,0,0,0-.644.029c.053.013.066.036.04.046-.429-.049-.85-.011-1.341-.041l-.147.062-.01-.047c-.239-.021-.051.066-.205.062.058,0,.047-.008.06-.02-.278.053-.154-.044-.31-.028.075-.05.3-.018.231-.085-.277.053-.708.024-.748.137a14.579,14.579,0,0,0-1.585.035c-.06-.02.037-.015.014-.031-.172.066-.575-.046-.577.013a.292.292,0,0,1-.14-.075,1.6,1.6,0,0,1-.212.036l-.011.007.118.04c-.11.027-.169.027-.156.015a.064.064,0,0,0,.06-.019,2.152,2.152,0,0,0-.234-.031l.006,0a7.816,7.816,0,0,0-1.063.066c.156-.033.011-.062.021-.083a2.276,2.276,0,0,1-.835.075c0-.019-.023-.035.014-.05l-.18.038.024-.024h-.013a.706.706,0,0,1-.281.036.116.116,0,0,1-.038-.021l-.116.013c.051.028.063.053-.111.069l-.047-.031a.442.442,0,0,0,.131.008c.063-.022.021-.032-.023-.04a1.34,1.34,0,0,1-.389.01.6.6,0,0,0,.086-.012l-.115.005c-.027.063.189.048.212.064a5.042,5.042,0,0,0-.9-.063l.025-.024c-.339.053-.2-.114-.467-.014-.143-.016.05-.066-.164-.071-.06,0-.025.023-.015.031-.264.022-.116-.06-.36,0l.053-.066a3.659,3.659,0,0,1-.846.132c.015-.05.17-.046.232-.085a10.373,10.373,0,0,1-1.13.061c.093.043-.15.1.052.137.052-.066.147-.022.255-.03-.175.144-.729-.07-.782.055l-.047-.051c-.048.008-.17.046-.086.062l-.347-.033c.122-.038.379-.127.459-.072.1-.054-.142-.036-.054-.1-.232.086-.143-.035-.383-.017.108.073.241-.321.4-.387.01.015.05.026.127.022l0-.059.24,0-.112.085a4,4,0,0,0,.664-.095c.055.1.421-.037.608.05l-.169.026c.36-.017.418.041.754.008a5.357,5.357,0,0,1-.7-.093c.417.041.721-.055,1.1,0-.025.024-.121.039-.028.063.075-.05.36,0,.3-.057.118.02.139.075.212.083l.218-.04a.05.05,0,0,1,.016-.015l.266-.042c-.053.009,0,.037.082.048H634.4c.018,0,.024.011.024.021.592.06,1.127-.117,1.736-.065l-.012.031.142-.039c-.073.025.086.034.1.06l.435-.068c.009.027-.017.089-.124.077" transform="translate(-571.118 -236.147)" fill="#3f2016"/>
    <path id="Path_157" data-name="Path 157" d="M471.055,264.568a2.108,2.108,0,0,0-.48.037l.049-.027-.145.023,0-.04a2.366,2.366,0,0,0-.626.04l.029-.063-.255.05.146-.043h-.042c-.131.012-.156.005-.37.016l.024,0-.015,0c-.184.011-.344.027-.379.027l.026-.023a.307.307,0,0,0-.133.011l.037-.034c-.118,0-.111-.014-.034-.044h-.076a.4.4,0,0,1,.137-.023l.069-.021a2.136,2.136,0,0,1-.347-.011l-.177-.059c-.159.054-.092.16-.379.146l.086-.043a.485.485,0,0,0-.135-.021c.124-.032.257-.069.369-.1-.163-.09-.47.045-.711.063.012-.011.1-.015.121-.039a7.894,7.894,0,0,0-1.012.1c-.117-.04.231-.026.174-.085-.144.023-.306-.027-.348.024.054-.074-.334,0-.058-.076a11.554,11.554,0,0,0-1.635.082c.026-.023.026-.043,0-.058a1.523,1.523,0,0,0,.543-.076c-.118-.04-.279.053-.312.03.06-.019.179-.019.182-.058-.153-.044-.24.018-.349.026l.06.02c-.337.053-.186.136-.545.114-.13-.047,0-.039,0-.1-.085.023-.357-.041-.445.021l.217.005a1.886,1.886,0,0,1-.349.006c-.12.019.045-.152.4-.111l-.061.02a3,3,0,0,0,.644-.029c-.054-.013-.066-.036-.04-.047.43.049.851.012,1.341.042l.147-.062.009.046c.24.021.052-.066.206-.061-.059,0-.048.008-.06.019.278-.053.154.044.31.029-.075.051-.3.018-.231.085.276-.053.707-.024.748-.137a14.764,14.764,0,0,0,1.585-.034c.06.02-.037.015-.015.031.172-.066.575.046.577-.013a.285.285,0,0,1,.141.075,1.5,1.5,0,0,1,.212-.037l.011-.007-.119-.04c.11-.027.169-.026.156-.015a.064.064,0,0,0-.06.019,2.21,2.21,0,0,0,.234.03l-.006,0a7.834,7.834,0,0,0,1.063-.065c-.156.033-.011.061-.02.083.17-.083-.217.469-.217.469-.01-.028.016-.09.123-.078" transform="translate(-420.309 -239.259)" fill="#3f2016"/>
    <path id="Path_158" data-name="Path 158" d="M436.015,265.367c.026-.023.026-.043,0-.058a1.519,1.519,0,0,0,.542-.076c-.117-.04-.278.053-.312.03.06-.019.179-.019.182-.058-.154-.043-.24.018-.349.026l.059.02c-.337.053-.186.136-.545.114-.13-.047,0-.039,0-.1-.085.023-.356-.041-.445.021l.218.005a1.9,1.9,0,0,1-.35.006c-.12.019.045-.152.4-.111l-.061.02a3,3,0,0,0,.644-.029c-.054-.013-.066-.036-.04-.046.43.049.579.19.048.234" transform="translate(-394.079 -240.201)" fill="#3f2016"/>
    <path id="Path_159" data-name="Path 159" d="M381.391,264.986c.013-.011.1-.015.121-.039a7.884,7.884,0,0,0-1.012.1c-.117-.04.231-.026.174-.086-.143.023-.306-.027-.348.024.054-.074-.334,0-.058-.076a11.535,11.535,0,0,0-1.635.082c.026-.023.026-.043,0-.058a1.522,1.522,0,0,0,.543-.076c-.117-.04-.279.053-.312.03.06-.019.179-.019.182-.058-.154-.044-.24.018-.35.026l.06.02c-.337.053-.186.136-.545.114-.13-.047,0-.039,0-.1-.085.023-.357-.041-.445.021l.218.005a1.893,1.893,0,0,1-.35.006c-.12.019.045-.152.4-.111l-.061.02a3,3,0,0,0,.644-.029c-.054-.013-.066-.036-.041-.047.43.049.851.012,1.341.042l.146-.062.009.046c.24.021.052-.066.206-.061-.059,0-.048.008-.06.019.278-.053.154.044.31.029-.075.051-.3.018-.231.085.276-.053.707-.024.748-.137.515.046.576.25.335.268" transform="translate(-342.093 -239.825)" fill="#3f2016"/>
    <path id="Path_160" data-name="Path 160" d="M36.515,262.781c.612.025,1.243-.026,1.776-.028l-.182.021.536-.018-.005.031c.887-.014,1.989.018,2.312-.031l-.1.048.942-.038-.539.033H41.4c.484-.009.579,0,1.371-.013l-.087,0,.052,0c.68-.008,1.27-.021,1.4-.021l-.1.018c.173.009.31,0,.491-.009l-.14.027c.439,0,.411.011.127.034h.282c-.131.011-.31.016-.51.018l-.255.016c.408,0,.841,0,1.284.009l.655.047a6.789,6.789,0,0,1,1.4-.114l-.317.033c.232.013.386.017.5.017-.457.025-.95.053-1.363.079.6.07,1.74-.035,2.627-.049-.046.009-.356.012-.45.03,1.328.017,2.718-.067,3.744-.078.433.031-.854.02-.641.066.531-.018,1.13.021,1.287-.018-.2.058,1.234,0,.215.06,1.94.026,4.079-.029,6.043-.063-.1.018-.1.033-.014.045-.665,0-1.641.017-2.006.059.433.031,1.03-.041,1.154-.023a4.723,4.723,0,0,0-.672.045c.567.034.887-.015,1.289-.02l-.218-.016c1.249-.041.69-.105,2.013-.089.482.037,0,.031-.013.076.315-.018-.786.07-1.5.069.2.01.244.028.15.036-1.588-.037-3.148-.009-4.957-.032l-.544.048-.034-.037c-.883-.016-.19.051-.761.048.217,0,.178-.006.223-.015a10.412,10.412,0,0,1-1.147-.022c.275-.04,1.109-.015.852-.066-1.025.042-2.616.019-2.766.107-1.9-.036-4.261.02-5.859.027-.22-.015.136-.011.054-.024-.635.05-2.124-.036-2.133.01a3.309,3.309,0,0,1-.517-.059c-.238.013-.5.022-.786.028l-.038.005.438.031a3.506,3.506,0,0,1-.577.011.847.847,0,0,0,.221-.015c-.255-.01-.54-.018-.866-.023l.023,0c-1.286.013-2.765,0-3.933.05.577-.025.041-.047.076-.065-.629.065-1.982.066-3.087.059,0-.015-.084-.027.05-.04l-.667.03.089-.018h-.049c-.444.02-.81.042-1.036.027a1.415,1.415,0,0,1-.143-.017l-.429.011c.189.021.23.04-.412.053l-.176-.024c.13,0,.306.013.486.007.232-.018.078-.025-.084-.031-.554.014-1.058.024-1.441.008.144,0,.246-.006.318-.01l-.425,0c-.1.049.7.037.783.05-1.057-.011,2.329-.5,4.581-.46l-.048.024.526-.03c-.272.019.319.026.354.046l1.609-.054c.037.021-.059.07-.454.06" transform="translate(-26.413 -238.015)" fill="#3f2016"/>
    <path id="Path_161" data-name="Path 161" d="M861.6,262.781c.612.025,1.244-.026,1.777-.028l-.182.021.537-.018-.006.031c.887-.014,1.988.018,2.313-.031l-.1.048.942-.038-.54.033h.154c.483-.009.577,0,1.37-.013l-.086,0,.052,0c.679-.008,1.269-.021,1.4-.021l-.1.018c.172.009.31,0,.49-.009l-.139.027c.438,0,.411.011.126.034h.283c-.131.011-.31.016-.51.018l-.256.016c.408,0,.841,0,1.286.009l.654.047a6.785,6.785,0,0,1,1.4-.114l-.318.033c.232.013.385.017.5.017-.458.025-.95.053-1.364.079.6.07,1.739-.035,2.627-.049-.045.009-.355.012-.45.03,1.328.017,2.716-.067,3.743-.078.433.031-.853.02-.641.066.531-.018,1.129.021,1.286-.018-.2.058,1.234,0,.215.06,1.939.026,4.08-.029,6.043-.063-.1.018-.1.033-.014.045-.665,0-1.641.017-2.007.059.434.031,1.031-.041,1.156-.023a4.733,4.733,0,0,0-.672.045c.567.034.888-.015,1.288-.02l-.217-.016c1.247-.041.689-.105,2.012-.089.483.037,0,.031-.012.076.313-.018-.787.07-1.5.069.2.01.245.028.15.036-1.588-.037-3.148-.009-4.958-.032l-.544.048-.034-.037c-.884-.016-.19.051-.762.048.218,0,.179-.006.223-.015a10.4,10.4,0,0,1-1.146-.022c.275-.04,1.109-.015.852-.066-1.024.042-2.616.019-2.766.107-1.9-.036-4.262.02-5.86.027-.22-.015.135-.011.054-.024-.634.05-2.124-.036-2.133.01a3.308,3.308,0,0,1-.517-.059c-.237.013-.5.022-.786.028l-.04.005.438.031a3.494,3.494,0,0,1-.576.011.839.839,0,0,0,.221-.015c-.255-.01-.539-.018-.864-.023l.023,0c-1.286.013-2.767,0-3.934.05.576-.025.042-.047.077-.065-.63.065-1.982.066-3.089.059,0-.015-.083-.027.051-.04l-.667.03.089-.018h-.049c-.444.02-.811.042-1.037.027a1.374,1.374,0,0,1-.142-.017l-.429.011c.189.021.231.04-.412.053l-.174-.024c.128,0,.305.013.486.007.23-.018.077-.025-.085-.031-.554.014-1.059.024-1.441.008.144,0,.245-.006.318-.01l-.424,0c-.1.049.7.037.783.05-1.057-.011,2.329-.5,4.58-.46l-.048.024.527-.03c-.272.019.319.026.354.046l1.609-.054c.035.021-.06.07-.455.06" transform="translate(-773.909 -238.015)" fill="#3f2016"/>
    <path id="Path_162" data-name="Path 162" d="M237.848,40.734l1.165-3.974a23.222,23.222,0,0,0-5.875-.988c-2.9,0-7.111.952-7.111,4.56,0,3.128,2.155,3.889,5.007,4.422,4.024.763,5.078,1.206,5.03,3.042,0,2.276-2.09,3-3.97,3a5.687,5.687,0,0,1-5.288-4.9l-.3-.121-1.259,4.258a16.7,16.7,0,0,0,7.244,1.447c3.152,0,7.319-1.552,7.319-5.279,0-3.033-2.29-3.749-5.842-4.445s-4.2-1.208-4.2-2.555c0-1.854,1.551-2.742,3.252-2.742a4.813,4.813,0,0,1,4.569,4.181Z" transform="translate(-204.064 -32.408)" fill="#3f2016"/>
    <path id="Path_163" data-name="Path 163" d="M398.034,44.768h.457c.93-1.182,3.063-3.291,4.7-3.291,1,0,1.281.672,1.281,1.535V51.1c0,2.066-.088,3.951-2.086,4.061v.407c1.563,0,6.629,0,8.009,0v-.407c-1.814-.112-1.9-2-1.9-4.061v-8.09c0-.863.283-1.535,1.281-1.535,1.634,0,3.766,2.109,4.7,3.291h.457L413.737,40.7H399.223Z" transform="translate(-360.604 -36.873)" fill="#3f2016"/>
    <path id="Path_164" data-name="Path 164" d="M789.628,39.717v.318c1.857.408,1.948,1.936,1.948,3.733v5.888c0,1.639-.621,4.175-2.5,4.705v.319c.941,0,4.655,0,5.6,0v-.342c-1.951-.507-2.3-3.047-2.3-4.682V42.42l11.479,12.013c.168.188.54.617.79.617.141,0,.411-.143.411-.712v-9.6c0-1.639.62-4.176,2.5-4.705v-.319c-.941,0-4.655,0-5.6,0v.342c1.953.506,2.295,3.047,2.295,4.682v3.939l-9.2-8.964c-.9,0-4.535,0-5.43,0" transform="translate(-714.869 -35.982)" fill="#3f2016"/>
    <path id="Path_165" data-name="Path 165" d="M1008.4,40.734l1.165-3.974a23.234,23.234,0,0,0-5.875-.988c-2.9,0-7.111.952-7.111,4.56,0,3.128,2.155,3.889,5.007,4.422,4.025.763,5.078,1.206,5.031,3.042,0,2.276-2.091,3-3.97,3a5.688,5.688,0,0,1-5.289-4.9l-.3-.121L995.8,50.03a16.7,16.7,0,0,0,7.245,1.447c3.151,0,7.319-1.552,7.319-5.279,0-3.033-2.29-3.749-5.841-4.445s-4.2-1.208-4.2-2.555c0-1.854,1.551-2.742,3.251-2.742a4.813,4.813,0,0,1,4.569,4.181Z" transform="translate(-902.155 -32.408)" fill="#3f2016"/>
    <path id="Path_166" data-name="Path 166" d="M73.1,86.546l-1.394,2.84h-.832l.573-1.125,1.236-2.567Z" transform="translate(-64.211 -77.635)" fill="#3f2016" fill-rule="evenodd"/>
    <path id="Path_167" data-name="Path 167" d="M281.167,323.918c0-.356-.245-.487-.385-.469s-.105-.093-.315-.037a1.258,1.258,0,0,0-.508.169,10.052,10.052,0,0,1-.964.525,2.166,2.166,0,0,1-.648.244c-.263.057-.456.375-.841.45-.333.094-.614.393-.736.356-.123-.056-.123.019-.754.263-.631.225-.683.094-.823-.056s-.193-.244-.561-.038c-.175.113-.158.469-.508.675-.368.206-.982.112-1.017.412-.035.394.315.225.561.206.263-.038.421-.018.613-.224s.3.037.508.018c.228-.018.648.357.841.506.263.188.578-.169.771.019a2.252,2.252,0,0,0,1.086-.188c.211-.112.789-.075.876-.187.07-.113.508-.113.666-.244.157-.15.911-.543,1.174-.731a2.831,2.831,0,0,0,.753-1.087c.035-.187.228-.244.21-.581m-1.192.488a.844.844,0,0,1-.3.768c-.263.225.053.188-.42.45-.457.244-.684.431-.876.319-.175-.113-.263.187-.754.15-.473-.056-.648.281-.964.15s-.736.019-.789-.243c-.07-.281.158-.244.228-.281a2.215,2.215,0,0,0,.753-.356c.211-.15.544-.113.719-.207a1.918,1.918,0,0,1,.578-.3c.21-.038.421-.281.648-.356.246-.075.386-.356.684-.375.28,0,.49-.075.49.282" transform="translate(-247.421 -292.985)" fill="#3f2016" fill-rule="evenodd"/>
    <path id="Path_168" data-name="Path 168" d="M334.557,302.391c-.14-.057-.176,0-.263.019a3.717,3.717,0,0,1-1.209.356c-.56-.188-.719-.057-.912-.487-.175-.431.456-1.087.333-1.762-.07-.469-.3-.394-.578-.188-.088.076-.245-.018-.333.244a7.835,7.835,0,0,1-.438,1.087c-.228.412-.263,1.012.613,1.518.719.412,1.034,0,1.262.037.3.057,1-.375,1.262-.412.192-.037.525-.3.263-.412m-.964-4.93c-.141-.224-.684.075-.947.169a21.425,21.425,0,0,0-1.928,1.406c-.508.375-.754.674-1.122.974a5.253,5.253,0,0,1-1.157.712,2.592,2.592,0,0,0-.561.394,1.8,1.8,0,0,1-.544.337.62.62,0,0,0-.437.244c-.088.112-.228.131-.368.206a2.8,2.8,0,0,1-.6.281c-.122.038-.543.469-.3.487.3.019.263-.224.631-.244a1.555,1.555,0,0,0,.561-.318,1.637,1.637,0,0,1,.491-.281,2.758,2.758,0,0,0,.841-.451,6.849,6.849,0,0,1,.964-.6,6.38,6.38,0,0,0,1.367-1.069c.193-.206.281.188-.034.488a11.808,11.808,0,0,1-1.489,1.518c-.3.188-.666.806-1.139,1.05-.473.225-1.385,1.725-1.875,2.025-.492.281-.614.806-1.209,1.162-.614.356-1.367,1.592-1.823,1.818-.473.225-.508.656-.666.769-.157.131-1.1.618-.6.825a1.515,1.515,0,0,0,1.4-.469c.122-.187.947-.375.947-.618,0-.225.893-.637.981-.862a2.3,2.3,0,0,1,.824-.712c.228-.131.122-.207.28-.319.158-.131.841-.6.35-.6-.754,0-.544.88-.911.618s.771-.918,1.017-1.425c.228-.525.666-.431.823-.787s.649-.506.754-.806c.087-.318,1.051-1.068,1.1-1.293.053-.206.508-.356.789-.787.263-.431,1.227-.9,1.314-1.274a1.991,1.991,0,0,1,.894-.956c.245-.113.158-.206.526-.637.386-.431,1.016-.731.841-.975" transform="translate(-291.276 -269.415)" fill="#3f2016" fill-rule="evenodd"/>
    <path id="Path_169" data-name="Path 169" d="M481.006,324.66c0-.188-.263-.094-.351-.019a3.9,3.9,0,0,1-1.367.581,5.7,5.7,0,0,1-1.261.169,3.072,3.072,0,0,1-.7-.019c-.369-.075-1.122-.15-1.122-.693,0-.075.228-.093.3-.112a3.89,3.89,0,0,0,.911-.375,2.893,2.893,0,0,1,.806-.563c.263-.075.421-.45.579-.656a2.773,2.773,0,0,0,.157-.431c.018-.15-.192-.206-.28-.3l-.21-.076c-.141,0-.263.094-.4.094-.806,0-1.648,1.087-1.806,1.144-.35.093-.876,1.218-.876,1.555a.644.644,0,0,0,.508.6c.228.037.315.225.631.244a1.127,1.127,0,0,1,.438.056,2.241,2.241,0,0,0,.718.075,1.426,1.426,0,0,0,.281-.037c.263-.094.455.057.648-.075a3.367,3.367,0,0,1,.859-.206c.21-.038.666-.319.841-.357.245-.056.683-.3.7-.6m-2.927-1.781c0,.057-.052.337-.141.337-.315,0-.473.469-.647.469-.105,0-.158.112-.263.15-.07.037-.175,0-.28,0l-.035-.018a1.042,1.042,0,0,1,.28-.356,6.948,6.948,0,0,1,.981-.6Z" transform="translate(-430.678 -291.871)" fill="#3f2016" fill-rule="evenodd"/>
    <path id="Path_170" data-name="Path 170" d="M549.663,325.223c.28-.188.106-.525-.228-.357-.053.019-.035.075-.088.075h-.018c-.034,0-.069.019-.227.113a3.664,3.664,0,0,1-1.086.412,1.874,1.874,0,0,0-.386.169,1.284,1.284,0,0,1-.315.112,1,1,0,0,0-.4.112,1.721,1.721,0,0,1-.422.112c-.122.038-.263.057-.385.094a3.643,3.643,0,0,1-1.893-.206c-.385-.262-.333-.543.124-1.162a2.451,2.451,0,0,1,.6-.6c.175-.131.35-.206.508-.319a1.9,1.9,0,0,1,.893-.206c.3-.037.35.15.246.319-.089.131-.281.524-.421.6a3.268,3.268,0,0,1-.368.187c-.192.057-.6.563-.228.676.263.056.333.037.421-.019a.5.5,0,0,1,.1-.094c.228-.187.438-.112.6-.45a.572.572,0,0,1,.28-.337c.386-.263.211-.356.422-.637.244-.337-.159-.956-.825-.825a2.7,2.7,0,0,1-.613.094.535.535,0,0,0-.245.075,1.026,1.026,0,0,1-.281.15,8.065,8.065,0,0,0-1.261.637c-1.7,1.312-.824,2.174-.228,2.474a3.4,3.4,0,0,0,2.086.112c.193-.131.473-.018.683-.169.192-.15.508,0,.718-.206.21-.188.7-.188.807-.318a.606.606,0,0,1,.263-.113c.14-.056.21.019.42-.075a3.988,3.988,0,0,0,.456-.224,2.051,2.051,0,0,0,.3-.206" transform="translate(-492.091 -292.602)" fill="#3f2016" fill-rule="evenodd"/>
    <path id="Path_171" data-name="Path 171" d="M619.725,284.165c.035-.224-.105-.337-.14-.544-.052-.281-.42-.037-.543.037-.088.037-.4.3-.07.431.263.094.088.3.35.394.281.112.35-.094.4-.319m-.771,5.511c.157-.224.053-.281-.087-.262a4.606,4.606,0,0,0-.526.243c-.228.056-.438.262-.683.244a2.347,2.347,0,0,0-.421.112,3.979,3.979,0,0,1-.6.15c-.245.037-.368.076-.473.094-.21.019-.3-.131-.49-.112-.176.018-.176.112-.176-.169a.842.842,0,0,1,.263-.506,3.512,3.512,0,0,0,.492-.544,2.639,2.639,0,0,1,.735-.75.618.618,0,0,1,.158-.075.534.534,0,0,0,.35-.563c-.035-.244-.123-.262-.245-.15a3.109,3.109,0,0,1-.368.318,4.32,4.32,0,0,0-.982.825,2.6,2.6,0,0,1-.754.637c-.35.207-.929.862-.526,1.35a.739.739,0,0,0,.614.281c.192-.018.368-.093.525-.093a2.178,2.178,0,0,0,.771-.225.815.815,0,0,1,.211-.037c.211,0,.4.093.614-.057.21-.131.455-.15.666-.263a.214.214,0,0,0,.105-.018.576.576,0,0,0,.333-.131,1.645,1.645,0,0,1,.263-.131.323.323,0,0,0,.227-.169" transform="translate(-556.703 -256.831)" fill="#3f2016" fill-rule="evenodd"/>
    <path id="Path_172" data-name="Path 172" d="M673.069,325.53c.157-.169.035-.224-.176-.244-.175,0-.315.225-.49.244-.122,0-.491.3-.666.244-.089-.037-.263.15-.333.112a.248.248,0,0,0-.228.019c-.193.094-.28-.019-.421-.037-.473-.056-.771-.15-.56-.731a2.132,2.132,0,0,0,.157-.469c.018-.206.07-.206.123-.169.1.075.14-.075.175-.15l.018-.037a.159.159,0,0,0-.088-.244c-.157-.075-.6.131-.771.206a.728.728,0,0,0-.157.075c-.07,0-.088.038-.123.113a.205.205,0,0,1-.1.112.238.238,0,0,0-.123.112c-.053.075-.088.169-.175.188a3.009,3.009,0,0,0-.508.337l-.14.075a.29.29,0,0,1-.246.057c-.105-.019-.192.094-.263.15a.5.5,0,0,1-.368.131,2.123,2.123,0,0,0-.648.187.715.715,0,0,1-.771-.224c-.158-.131-.158-.225-.14-.3a.977.977,0,0,1,.175-.206c.14-.131.14-.244.351-.3s.245-.263.28-.263c.105-.018.263-.206.35-.356.088-.131.579-.112.666-.188.193-.131.333-.037.527-.018a.183.183,0,0,1,.087.018c.07.038.736-.112.753-.3.053-.376-.228-.506-.508-.563-.176-.037-.246.131-.4.075-.105-.056-.123-.037-.176-.018s-.07.018-.123.037a.44.44,0,0,0-.333.187c-.053.075-.175.075-.263.169-.052.057-.244.019-.3.113-.035.056-.192.018-.333.169-.122.169-.4.244-.543.468a.3.3,0,0,1-.158.131.5.5,0,0,0-.176.15c-.192.263-.753.882-.682,1.219.017.112.017.319.122.375a.923.923,0,0,1,.141.131c.157.131.192.057.35.075a.8.8,0,0,0,.421.019.411.411,0,0,1,.333-.037.984.984,0,0,0,.227-.037c.053-.019.105-.037.123-.019.1.075.35-.075.438-.075a.386.386,0,0,0,.193-.094.554.554,0,0,1,.368-.131.745.745,0,0,0,.56-.356c.157-.187.315-.112.525-.112.089-.019.105.037.14.15a.846.846,0,0,0,.105.412.916.916,0,0,0,.789.431.385.385,0,0,1,.21,0,.82.82,0,0,0,.473-.019.637.637,0,0,1,.263,0c.141.057.351-.075.457-.15.087-.075.14-.057.244-.075.246-.057.281-.207.4-.225a3.1,3.1,0,0,1,.368-.112c.141,0,.193-.206.3-.225a.237.237,0,0,0,.193-.112l.087-.094" transform="translate(-602.673 -292.723)" fill="#3f2016" fill-rule="evenodd"/>
    <path id="Path_173" data-name="Path 173" d="M751.356,301.309c-.035-.113.052-.337-.526.018-.263.169-.334.037-.6.263-.4.356-.49.094-.823.337-.316.244-.228.057-.527.187a7.57,7.57,0,0,1-1.015.131c-.386.075-.544.318-.789.075s.473-1.293.684-1.425a1.887,1.887,0,0,0,.525-.6c.228-.318-.052-.318.544-.6.473-.206.841-.88,1.051-.937a8.631,8.631,0,0,0,1.227-1.087c.263-.206.176-.431,0-.675-.158-.243-.928.525-1.472.712-.526.188-.421.375-.719.506a7.648,7.648,0,0,1-1.3.731c-.4.188-.35.412-.771.544-.666.225-.368.319-.876.506-.21.075-.245.319-.509.394s-.279.057-.455.244c-.158.187-.14.356-.4.375-.368.037-.526.224-.859.412-.245.15-.21.244-.666.357-.071.018-.3.412-.071.431.3.018.334-.224.684-.263a4.1,4.1,0,0,0,.947-.487,2.3,2.3,0,0,0,.666-.506c.141-.15.368-.243.6-.487s.368-.394.473-.337a2.085,2.085,0,0,0,.841-.375c.211-.131.544-.394.421-.075-.105.262-.175.356-.35.431a1.594,1.594,0,0,0-.544.674,1.959,1.959,0,0,1-.613.825,1.46,1.46,0,0,0-.35,1.386.565.565,0,0,0,.858.206,2,2,0,0,1,.806-.131c.438-.019.666-.244,1.139-.319a1.941,1.941,0,0,0,.982-.357c.07-.093.649-.281.754-.393.123-.131.4-.15.613-.224s.456-.337.421-.469" transform="translate(-673.052 -269.026)" fill="#3f2016" fill-rule="evenodd"/>
    <path id="Path_174" data-name="Path 174" d="M837.467,284.165c.035-.224-.1-.337-.14-.544-.053-.281-.422-.037-.544.037-.088.037-.4.3-.07.431.263.094.088.3.351.394.279.112.35-.094.4-.319m-.771,5.511c.158-.224.053-.281-.088-.262a4.628,4.628,0,0,0-.525.243c-.228.056-.438.262-.684.244a2.316,2.316,0,0,0-.42.112,4.027,4.027,0,0,1-.6.15c-.246.037-.369.076-.473.094-.211.019-.3-.131-.492-.112-.175.018-.175.112-.175-.169a.84.84,0,0,1,.263-.506,3.544,3.544,0,0,0,.49-.544,2.647,2.647,0,0,1,.736-.75.618.618,0,0,1,.158-.075.535.535,0,0,0,.35-.563c-.035-.244-.123-.262-.246-.15a3,3,0,0,1-.368.318,4.314,4.314,0,0,0-.981.825,2.594,2.594,0,0,1-.754.637c-.35.207-.928.862-.525,1.35a.736.736,0,0,0,.613.281c.193-.018.368-.093.526-.093a2.187,2.187,0,0,0,.77-.225.815.815,0,0,1,.211-.037c.21,0,.4.093.613-.057.211-.131.456-.15.666-.263a.214.214,0,0,0,.105-.018.572.572,0,0,0,.333-.131,1.709,1.709,0,0,1,.263-.131.322.322,0,0,0,.228-.169" transform="translate(-753.969 -256.831)" fill="#3f2016" fill-rule="evenodd"/>
    <path id="Path_175" data-name="Path 175" d="M890.861,289.556c0-.15-.052-.244-.525-.244-.263,0-.527.038-.789.038-.245,0-.49-.038-.736-.038-.28,0-.543.113-.806.113-.157,0-.3-.075-.455-.075-.228,0-.438.187-.7.187-.368,0-.718-.131-1.068-.131a1.169,1.169,0,0,0-.228.037c-.123.019-.315-.112-.491-.112-.333,0-.683.075-1.034.075a3.826,3.826,0,0,1-.929-.075l-.053-.057c.018-.468,1.823-1.274,2.051-1.593.192-.281,1.069-.505,1.069-.843,0-.113-.087-.15-.176-.15-.682,0-2.593,1.612-3.365,1.744a1.521,1.521,0,0,0-.824.487,3.39,3.39,0,0,1-2.26.712h-.228c-.28-.019-1.735.562-1.735.843,0,.15.3.15.386.15.666,0,.806-.45,1.279-.45.105,0,.3.018.3.15,0,.169-1.438,1.106-1.683,1.368-.246.282-.544.225-.649.337a.637.637,0,0,1-.438.263c-.193.057-.279.225-.473.263-.123.037-.544.169-.544.356a.23.23,0,0,0,.211.187,5.4,5.4,0,0,0,2-.955,1.05,1.05,0,0,1,.192-.113,2.99,2.99,0,0,0,.982-.618A4.011,4.011,0,0,1,880.5,290.4a.078.078,0,0,1,.07.075c0,.188-.3.319-.421.376-.456.187-.631,1.162-1.192,1.48a.488.488,0,0,0-.246.412c0,.787.789.9,1.35.938a6.208,6.208,0,0,0,1.244-.169,4.171,4.171,0,0,0,1.384-.3c.28-.15.526-.037.7-.263.069-.094.438-.187.508-.262s.263-.038.263-.169c0-.057-.088-.225-.14-.225a2.575,2.575,0,0,0-.736.281,4.026,4.026,0,0,1-1.315.319c-.122,0-.56.188-.683.188-.386.018-.4.038-.737.038-.245,0-.771-.075-.771-.412,0-.6.579-.993.631-1.144.07-.206.35-.393.508-.505.457-.319.912-1.162,1.473-1.162.175,0,.368.056.543.056.263,0,.526-.093.789-.093.192,0,.368.037.56.037.35,0,.7-.076,1.069-.076.193,0,.386.057.579.057.245,0,.508-.075.754-.075.333,0,.648.057.981.057.193,0,.386-.057.579-.057a4.754,4.754,0,0,0,1.174-.057.624.624,0,0,1,.192-.018c.316,0,.421.075.754.075s.491,0,.491-.244" transform="translate(-793.401 -259.729)" fill="#3f2016" fill-rule="evenodd"/>
    <path id="Path_176" data-name="Path 176" d="M977.391,284.165c.035-.224-.1-.337-.14-.544-.053-.281-.421-.037-.543.037-.089.037-.4.3-.07.431.263.094.087.3.351.394.28.112.35-.094.4-.319m-.771,5.511c.158-.224.053-.281-.087-.262a4.545,4.545,0,0,0-.525.243c-.228.056-.438.262-.684.244a2.342,2.342,0,0,0-.421.112,4,4,0,0,1-.6.15c-.245.037-.369.076-.473.094-.21.019-.3-.131-.491-.112-.176.018-.176.112-.176-.169a.839.839,0,0,1,.263-.506,3.554,3.554,0,0,0,.491-.544,2.641,2.641,0,0,1,.736-.75.616.616,0,0,1,.157-.075.535.535,0,0,0,.351-.563c-.035-.244-.124-.262-.246-.15a2.982,2.982,0,0,1-.368.318,4.34,4.34,0,0,0-.982.825,2.589,2.589,0,0,1-.753.637c-.351.207-.929.862-.526,1.35a.737.737,0,0,0,.613.281c.193-.018.368-.093.526-.093a2.188,2.188,0,0,0,.771-.225.8.8,0,0,1,.21-.037c.211,0,.4.093.614-.057.21-.131.455-.15.666-.263a.214.214,0,0,0,.105-.018.572.572,0,0,0,.333-.131,1.687,1.687,0,0,1,.263-.131.32.32,0,0,0,.228-.169" transform="translate(-880.736 -256.831)" fill="#3f2016" fill-rule="evenodd"/>
    <path id="Path_177" data-name="Path 177" d="M1031.371,324.66c0-.188-.263-.094-.35-.019a3.914,3.914,0,0,1-1.367.581,5.715,5.715,0,0,1-1.262.169,3.072,3.072,0,0,1-.7-.019c-.368-.075-1.122-.15-1.122-.693,0-.075.228-.093.3-.112a3.9,3.9,0,0,0,.912-.375,2.891,2.891,0,0,1,.806-.563c.263-.075.421-.45.578-.656a2.6,2.6,0,0,0,.158-.431c.018-.15-.193-.206-.28-.3l-.211-.076c-.141,0-.263.094-.4.094-.806,0-1.648,1.087-1.8,1.144-.35.093-.876,1.218-.876,1.555a.643.643,0,0,0,.509.6c.228.037.315.225.63.244a1.128,1.128,0,0,1,.438.056,2.241,2.241,0,0,0,.718.075,1.411,1.411,0,0,0,.28-.037c.263-.094.457.057.649-.075a3.361,3.361,0,0,1,.858-.206c.211-.038.667-.319.841-.357.246-.056.684-.3.7-.6m-2.926-1.781c0,.057-.053.337-.141.337-.316,0-.473.469-.649.469-.105,0-.157.112-.263.15-.07.037-.176,0-.281,0l-.034-.018a1.033,1.033,0,0,1,.28-.356,6.919,6.919,0,0,1,.982-.6Z" transform="translate(-929.288 -291.871)" fill="#3f2016" fill-rule="evenodd"/>
    <path id="Path_178" data-name="Path 178" d="M1085.094,323.918c0-.356-.245-.487-.385-.469s-.105-.093-.315-.037a1.254,1.254,0,0,0-.508.169,10.055,10.055,0,0,1-.964.525,2.166,2.166,0,0,1-.648.244c-.263.057-.457.375-.841.45-.333.094-.614.393-.736.356-.123-.056-.123.019-.754.263-.631.225-.683.094-.823-.056s-.193-.244-.561-.038c-.175.113-.158.469-.508.675-.368.206-.982.112-1.017.412-.035.394.315.225.561.206.263-.038.421-.018.613-.224s.3.037.509.018c.228-.018.648.357.841.506.263.188.578-.169.771.019a2.252,2.252,0,0,0,1.086-.188c.211-.112.789-.075.876-.187.07-.113.509-.113.667-.244.157-.15.911-.543,1.174-.731a2.832,2.832,0,0,0,.754-1.087c.035-.187.227-.244.21-.581m-1.192.488a.844.844,0,0,1-.3.768c-.263.225.053.188-.42.45-.457.244-.684.431-.876.319-.176-.113-.263.187-.754.15-.473-.056-.648.281-.964.15s-.736.019-.789-.243c-.07-.281.158-.244.228-.281a2.219,2.219,0,0,0,.753-.356c.211-.15.544-.113.719-.207a1.919,1.919,0,0,1,.578-.3c.21-.038.421-.281.648-.356.246-.075.385-.356.684-.375.28,0,.49-.075.49.282" transform="translate(-975.749 -292.985)" fill="#3f2016" fill-rule="evenodd"/>
    <path id="Path_179" data-name="Path 179" d="M1173.245,36.681a1.4,1.4,0,1,1,1.4,1.429,1.412,1.412,0,0,1-1.4-1.429m2.571,0a1.174,1.174,0,1,0-1.172,1.256,1.232,1.232,0,0,0,1.172-1.256m-1.842-.792h.738c.244,0,.48.118.48.379a.461.461,0,0,1-.333.438l.236.329a1.956,1.956,0,0,0,.316.35v.038h-.265c-.135,0-.236-.286-.5-.674h-.2v.409c0,.181-.008.181.2.2v.063h-.674v-.063c.207-.021.2-.021.2-.2v-1c0-.186,0-.181-.2-.2Zm.472.78h.177c.2,0,.287-.156.287-.379s-.131-.32-.295-.32h-.169Z" transform="translate(-1062.916 -31.93)" fill="#3f2016"/>
  </g>
</svg>
