<svg id="Group_6978" data-name="Group 6978" xmlns="http://www.w3.org/2000/svg" xmlns:xlink="http://www.w3.org/1999/xlink" width="169.69" height="60" viewBox="0 0 169.69 60">
  <defs>
    <clipPath id="clip-path">
      <rect id="Rectangle_1280" data-name="Rectangle 1280" width="169.69" height="60" fill="none"/>
    </clipPath>
  </defs>
  <g id="Group_6978-2" data-name="Group 6978" clip-path="url(#clip-path)">
    <path id="Path_180" data-name="Path 180" d="M16.13,48.55h6.12L19.155,42.4Zm-.653,1.182L14.143,52.47a8.972,8.972,0,0,0-.838,2.869c0,1.754,1.087,2.5,2.642,2.817v.616H7.55v-.547c1.043-.247,3.213-2.137,5-5.508l8.312-15.751c.088-.179.6-1.193.795-1.193.387,0,.822.865,1.04,1.3l9.04,16.968c1.617,2.993,2.6,3.792,3.681,4.014v.72H23.928v-.617c1.051-.229,1.877-.376,1.877-1.738a8.941,8.941,0,0,0-1.187-3.393L22.9,49.732Z" transform="translate(-6.485 -30.726)" fill="#fff"/>
    <path id="Path_181" data-name="Path 181" d="M609.267,58.216c3.784,0,6.285-3.3,6.285-10.666s-2.5-10.666-6.285-10.666-6.286,3.3-6.286,10.666,2.5,10.666,6.286,10.666m.087-22.444c6.695,0,13.1,4.056,13.1,11.778s-6.405,11.778-13.1,11.778-13.1-4.057-13.1-11.778,6.4-11.778,13.1-11.778" transform="translate(-512.148 -30.726)" fill="#fff"/>
    <path id="Path_182" data-name="Path 182" d="M561.045,217.049c.7-.179,3.011-.591,2.975-4-.126.269-.449.914-.592,1.129s-.645.108-.394-.3a4.127,4.127,0,0,0,.592-2.347c-.163-.411-.288-.5-.323-.017a2.066,2.066,0,0,1-1.218,1.523,5.36,5.36,0,0,0-.037-2.975c-.376-.519-.412-.3-.412.018s.144,1.218-.3,1.612c-.214.269-.394.251-.3-.215a4.133,4.133,0,0,0-.662-2.794,1.677,1.677,0,0,1-.412-.986c0-.36-.179-.771-.341-.286a2.474,2.474,0,0,0,.252,1.809,1.428,1.428,0,0,1,.143,1.362c-.233-.232-1.685-1.343-1.811-1.469s-.3,0-.142.18,1.163.931.841,1.7a3.977,3.977,0,0,0-.376,1.326,4.277,4.277,0,0,0-.914-1.075c-.179-.161-.394-.072-.16.179a1.247,1.247,0,0,1,.214,1.272,1.5,1.5,0,0,0-.18.771c-.017.18-.25.286-.339.072a1.315,1.315,0,0,0-.664-.681c-.412-.215-.25.143-.036.323a2.962,2.962,0,0,1,.4,1.594,3.3,3.3,0,0,0,2.939,2.383,1.854,1.854,0,0,1-.789-.626,2.111,2.111,0,0,0-.9-1.165c-.643-.4-.538-.691-.179-.663a.752.752,0,0,1,.591.232c.18.2.144.18.126-.072s-.161-.626-.161-.842.254-.527.412-.054a4.4,4.4,0,0,0,.663,1.415c.161.126.215-.035.143-.179a4.063,4.063,0,0,1-.34-1.917c.16-.592.359-.448.394-.126a1.638,1.638,0,0,0,.179.717c.126.215.36.359.4.054a3.05,3.05,0,0,0-.161-1.183c-.143-.466-.161-.448-.143-.717s.2-.322.519.18a2.527,2.527,0,0,1,.144,2.454c-.144.3.071.269.2.09a2.663,2.663,0,0,1,.3-.358c.16-.18.34.017.251.34s-.143.179-.2.394.162.269.286.072a2.353,2.353,0,0,0,.323-.592c.089-.268.233-.342.233.18a2.526,2.526,0,0,1-1.022,2.257" transform="translate(-477.763 -177.964)" fill="#fff"/>
    <path id="Path_183" data-name="Path 183" d="M255.5,58.312c-1.059-.308-2.42-.6-4.149-.924a20,20,0,0,1-3.783-1c.807.236,1.679.424,2.591.594a29.928,29.928,0,0,1,5.34,1.334m-11.215,1.349.251-.847.521.208a9.033,9.033,0,0,0,3.781,6.022,8.849,8.849,0,0,1-4.553-5.382m17.038-5.3a5.147,5.147,0,0,1,3.241,5.145c0,5.632-6.294,7.961-11.022,7.961a26.764,26.764,0,0,1-9.465-1.554,27.952,27.952,0,0,0,8.3,1.146c4.733,0,11.146-2.335,11.146-8.086a5.17,5.17,0,0,0-2.2-4.613M255.82,45.11a6.39,6.39,0,0,0-1.475-.17c-2.539,0-4.834,1.322-4.834,4.068a2.339,2.339,0,0,0,.79,2c-1.52-.638-1.836-1.367-1.836-2.529,0-2.649,2.206-3.945,4.71-3.945a6.205,6.205,0,0,1,2.644.578m7.565.213-1.773,6.05-.453-.174a8.416,8.416,0,0,0-.323-1.256l1.438-4.908q.555.143,1.111.289" transform="translate(-209.65 -38.251)" fill="#fff" fill-rule="evenodd"/>
    <path id="Path_184" data-name="Path 184" d="M142.787,194.435a2.682,2.682,0,0,0,1.044.439v.8H132.254v-.424c1.56-.036,8.5.015,10.41.015h.124Z" transform="translate(-113.599 -167.009)" fill="#fff" fill-rule="evenodd"/>
    <path id="Path_185" data-name="Path 185" d="M114.587,39.647c.007-.141.117-.261.34-.246.355.024.8.922,1,1.34l9.04,16.968a12.336,12.336,0,0,0,2.27,3.265c-1.638-.562-2.645-2.592-3.33-3.856l-9.038-16.964c-.05-.1-.106-.2-.286-.507" transform="translate(-98.424 -33.842)" fill="#fff" fill-rule="evenodd"/>
    <path id="Path_186" data-name="Path 186" d="M23.579,196.092a5.429,5.429,0,0,0,1.045.309v.7H16.14v-.434c1.04-.04,5.891.025,7.316.025h.123Z" transform="translate(-13.863 -168.432)" fill="#fff" fill-rule="evenodd"/>
    <path id="Path_187" data-name="Path 187" d="M59.691,136.642H53.35l-1.322,2.712a8.923,8.923,0,0,0-.835,2.851,2.5,2.5,0,0,0,.726,1.916,2.352,2.352,0,0,1-1.771-2.448,8.833,8.833,0,0,1,.823-2.8l1.286-2.64h7.22Z" transform="translate(-43.075 -117.017)" fill="#fff" fill-rule="evenodd"/>
    <path id="Path_188" data-name="Path 188" d="M424.111,65.941a2.973,2.973,0,0,0,1.046.229v.7h-12.1v-.419c1.863-.033,8.846.01,10.932.01h.124Zm.716-20.148a3.332,3.332,0,0,0-.645-.067c-1.46,0-1.877.973-1.877,2.26V60.12c0,2.188.068,4.206,1.035,5.27-2.344-.725-2.081-4.159-2.081-5.8V47.455c0-1.261.4-2.137,1.754-2.137a4.324,4.324,0,0,1,1.813.475m4.452-1.318h.884l1.807,6.189h-.765a3.182,3.182,0,0,1-.238-.409Zm-22,6.189h-.765l.366-1.252c1.53-1.714,4.164-4.094,6.255-4.094a1.69,1.69,0,0,1,1.224.409h-.056c-2.435,0-5.633,3.164-7.025,4.938" transform="translate(-349.176 -38.202)" fill="#fff" fill-rule="evenodd"/>
    <path id="Path_189" data-name="Path 189" d="M646.8,55.958c0,5.02,1.161,8.17,3.11,9.669-2.552-1.052-4.156-4.3-4.156-10.2,0-7.36,2.5-10.586,6.206-10.586a5.23,5.23,0,0,1,2.357.526,5.832,5.832,0,0,0-1.189-.117c-3.825,0-6.328,3.338-6.328,10.709" transform="translate(-554.665 -38.516)" fill="#fff" fill-rule="evenodd"/>
    <path id="Path_190" data-name="Path 190" d="M670.145,50.929a11.03,11.03,0,0,1,6.209,10.215c0,7.754-6.434,11.822-13.144,11.822a15.664,15.664,0,0,1-5.718-1.055,16.1,16.1,0,0,0,4.55.647c6.753,0,13.267-4.1,13.267-11.946a11.079,11.079,0,0,0-5.164-9.684" transform="translate(-564.749 -43.745)" fill="#fff" fill-rule="evenodd"/>
    <path id="Path_191" data-name="Path 191" d="M805.1,64.98a3.541,3.541,0,0,0,1.045.444v.592h-8.485v-.434c1.04-.04,5.891.025,7.317.025h.123Zm-2.4-16.418v9.875c0,1.979.336,4.809,1.974,6.229-2.639-1-3.019-4.583-3.019-6.761V47.469Zm21.731-5.056c.348-.013.7-.021,1.045-.021v.556c-2.817.765-3.756,4.554-3.756,7.023v14.4c0,.869-.417,1.112-.661,1.112h-.07c-.2,0-.492-.248-.758-.518a1.28,1.28,0,0,0,.444-1.126V50.534c0-2.373.864-6.144,3.755-6.93Zm-18.173-.016c.149,0,.3,0,.441,0l12.443,12.127v.434Z" transform="translate(-685.146 -37.351)" fill="#fff" fill-rule="evenodd"/>
    <path id="Path_192" data-name="Path 192" d="M1026.048,58.312c-1.058-.308-2.418-.6-4.149-.924a20.009,20.009,0,0,1-3.783-1c.806.236,1.679.424,2.592.594a29.956,29.956,0,0,1,5.34,1.334m-11.215,1.349.251-.847.521.208a9.04,9.04,0,0,0,3.78,6.022,8.855,8.855,0,0,1-4.552-5.382m17.038-5.3a5.148,5.148,0,0,1,3.242,5.145c0,5.632-6.294,7.961-11.024,7.961a26.779,26.779,0,0,1-9.466-1.554,27.964,27.964,0,0,0,8.3,1.146c4.732,0,11.146-2.335,11.146-8.086a5.17,5.17,0,0,0-2.2-4.613m-5.505-9.254a6.406,6.406,0,0,0-1.477-.17c-2.538,0-4.833,1.322-4.833,4.068a2.339,2.339,0,0,0,.79,2c-1.518-.638-1.835-1.367-1.835-2.529,0-2.649,2.206-3.945,4.709-3.945a6.221,6.221,0,0,1,2.645.578m7.563.213-1.773,6.05-.451-.174a8.386,8.386,0,0,0-.325-1.256l1.439-4.908c.371.1.742.191,1.111.289" transform="translate(-871.506 -38.251)" fill="#fff" fill-rule="evenodd"/>
    <path id="Path_193" data-name="Path 193" d="M61.515,1.206c-1.026-.063-2.085.068-2.977.074l.3-.055-.9.046.009-.078c-1.486.037-3.334-.045-3.878.08l.174-.126-1.578.1.9-.085-.258,0c-.811.024-.969.01-2.3.032l.145-.007-.087-.007c-1.139.023-2.129.055-2.347.054l.16-.046a5.849,5.849,0,0,0-.822.022l.234-.07c-.736.006-.689-.029-.213-.087l-.473,0a7.454,7.454,0,0,1,.856-.045L48.9.967c-.684.011-1.41,0-2.154-.023l-1.1-.119a7.612,7.612,0,0,1-2.349.293l.532-.085C43.441,1,43.185.988,42.994.988c.767-.064,1.593-.136,2.286-.2a31.577,31.577,0,0,0-4.4.126c.075-.023.6-.03.755-.077-2.226-.042-4.556.173-6.277.2-.726-.079,1.43-.052,1.075-.169a20.881,20.881,0,0,0-2.158.047C34.609.763,32.2.9,33.911.759,30.659.691,27.07.834,23.779.922c.162-.047.162-.086.023-.117A28.038,28.038,0,0,0,27.166.654c-.726-.079-1.727.106-1.935.059A5.254,5.254,0,0,0,26.358.6,14.227,14.227,0,0,0,24.2.649l.364.04a24.486,24.486,0,0,1-3.374.229c-.809-.1,0-.079.021-.2-.527.046-2.215-.081-2.758.042L19.8.775c-.941.033-1.829.032-2.484.073a.819.819,0,0,1,.32-.061c-.744.038-1.706.028-2.089.106L15.332.767a10.574,10.574,0,0,0,2.006,0,12.281,12.281,0,0,0-2.067-.05c2.6-.035,2.638-.23,4.844-.149L19.738.6c1.377.1,2.79-.062,3.992-.058-.337-.025-.41-.071-.252-.092,2.664.1,5.278.023,8.312.082L32.7.414l.057.094c1.481.041.318-.133,1.276-.124-.364,0-.3.015-.373.039A11.35,11.35,0,0,1,35.585.48c-.46.1-1.86.037-1.428.17C35.874.543,38.545.6,38.794.376c3.191.092,7.145-.05,9.825-.07.369.039-.228.031-.091.063C49.591.237,52.09.459,52.1.342a3.729,3.729,0,0,1,.868.15c.4-.033.843-.056,1.317-.073l.065-.014L53.62.327A3.806,3.806,0,0,1,54.586.3a.926.926,0,0,0-.371.039c.428.026.9.046,1.45.06L55.627.388c2.156-.034,4.638-.006,6.6-.132-.967.066-.069.124-.128.167a42.586,42.586,0,0,1,5.177-.15c-.006.039.141.07-.085.1L68.306.3l-.151.047h.082A13.464,13.464,0,0,1,69.975.275a1.748,1.748,0,0,1,.238.042l.719-.026c-.316-.055-.386-.1.692-.139l.293.063C71.7.207,71.4.183,71.1.2c-.387.045-.128.064.142.081.93-.035,1.775-.062,2.416-.019-.24.007-.411.015-.534.024l.712-.011C74,.148,72.664.178,72.527.146c1.772.026,3.9.21,5.548.126l-.155.047c2.1-.106,1.224.229,2.895.029C81.7.379,80.5.479,81.83.489c.376,0,.156-.047.089-.063,1.636-.044.722.119,2.231,0l-.325.132C85.625.472,87.513.24,89.068.3A12.1,12.1,0,0,1,87.63.467c2.107-.184,5.056-.023,7-.121-.582-.087.923-.2-.325-.275a6.188,6.188,0,0,1-1.577.061c1.08-.288,4.516.14,4.845-.11l.287.1C98.163.109,98.92.032,98.4,0l2.151.065A15.564,15.564,0,0,1,97.7.21c-.611.109.881.072.339.2a14.242,14.242,0,0,1,2.374.035C99.74.293,101.9.24,101.83.17a16.329,16.329,0,0,0,1.988-.092c.861-.014,2.838.105,4.219.055-.522.046-1.349.107-1.29.2A4.116,4.116,0,0,1,108.3.391c-2.4.2-.774-.251-2.953-.122a12.145,12.145,0,0,1-2.257.191c.511.071.285.1.5.189,1.373-.263,3.572-.026,5.369-.156a5.883,5.883,0,0,1,1.9-.27L109.381.142c1.619.073.38-.077,1.717-.106l-.529.086a8.715,8.715,0,0,0,1.57-.061l-.693.132a4.638,4.638,0,0,0,1.268-.045c.116.032.151.057.151.08A4.455,4.455,0,0,1,113.678.2c-.3.016-.518.007-.526.047,1.967-.032.457.142,1.68.129-.192.031.156.069.59.085-.028-.207,2.391-.235,3.031-.35l1.638-.08c-.334.017.025.073.508.1h-.08c.522.032-.623.225.946.165l.8-.058c-.1.009.028.038.1.053l.851-.056c1.3.194,2.455-.11,3.983-.014-.441-.017-1.111,0-.827.061a5.617,5.617,0,0,0,.978-.03l-.08.023,2.914-.128c-.236.07-1.865.076-1.139.155a10.572,10.572,0,0,0,1.791-.013c-.069-.055-1.031-.1-.057-.133.121.028,1.046.084.612.123,1-.055,2.446-.089,3.339-.187.285.024-.158.047-.308.054L134.345.12A3.9,3.9,0,0,1,133.073.2c-.1.18,1.7.049,2.735.074L134.156.4c2.787.246,6.539-.021,9.3-.024-.812-.056-1.485,0-1.391-.143,1.716-.068,1.489-.037,3.2-.065l-.146.008c.883.072,2.09-.066,2.669.06-.385.077-1.258-.073-1.276.084L148.66.307c-.678.093-2.154.013-2.976.034-.592-.009,1.189-.022.909-.124a17.6,17.6,0,0,0-3.457.253c-.6.108.876.11,1.248.111a33.906,33.906,0,0,1,5.148-.164l1.1.119a7.612,7.612,0,0,1,2.349-.293l-.532.085c.389.033.646.045.837.045-.768.064-1.593.136-2.286.2a31.537,31.537,0,0,0,4.4-.126c-.076.023-.6.03-.755.077,2.226.042,4.556-.173,6.277-.2.726.079-1.431.053-1.075.171A20.827,20.827,0,0,0,162,.45c-.338.149,2.069.008.36.152C165.617.67,169.206.528,172.5.439c-.163.047-.163.086-.023.118a28.256,28.256,0,0,0-3.365.15c.726.08,1.727-.106,1.935-.058a5.351,5.351,0,0,0-1.127.114,14.08,14.08,0,0,0,2.16-.05l-.364-.04a24.446,24.446,0,0,1,3.374-.229c.808.095,0,.078-.021.2.527-.046,2.215.081,2.757-.042L176.48.586c.941-.033,1.828-.033,2.484-.073a.844.844,0,0,1-.319.061c.744-.038,1.706-.027,2.089-.106l.21.126a10.634,10.634,0,0,0-2.005,0A12.382,12.382,0,0,0,181,.648c-2.6.034-2.637.23-4.843.149l.377-.039c-1.376-.095-2.79.062-3.992.057.337.026.41.072.252.093-2.664-.1-5.278-.024-8.312-.084l-.914.124-.057-.094c-1.481-.041-.318.133-1.276.124.364,0,.3-.016.373-.039A11.451,11.451,0,0,1,160.69.882c.46-.1,1.86-.037,1.428-.171-1.717.106-4.387.048-4.637.275-3.19-.092-7.146.05-9.825.07-.369-.04.228-.031.09-.063-1.063.132-3.562-.092-3.576.026a3.724,3.724,0,0,1-.867-.15c-.68.056-1.494.084-2.361.1l.634-.032-.069-.016-.9.046.038.007c-2.155.033-4.637.006-6.594.131.967-.065.069-.123.128-.166a42.6,42.6,0,0,1-5.179.15c.007-.039-.14-.07.086-.1l-1.119.077.151-.047c-2-.035-4.186.173-5.506.085.813-.023.821-.062.9-.124-1.436,0-2.788.007-4.464.063.088-.011.151-.025.151-.039-.44-.016-.968.03-1.418.053l-.063-.094c-.854.044-1.965,0-2.982.07-.4-.1-2.47.095-3.644.053-.452.022.979-.108-.283-.1-.181.2-1.639.006-1.737.225l-1.1-.08-.244.109a19.568,19.568,0,0,0-2.823.028c.071-.024.222-.031.15-.047-.452.023-1.492.037-.684.093-.744,0-3.277.049-2.139-.066a7.492,7.492,0,0,0,1.406-.013c-.059-.094-1.176-.057-1.453-.159-.036.01-.184.026-.29.042l-.16-.058c-1.4.1-2.818.029-3.835.163a2.894,2.894,0,0,0-.784-.046l-.019.118-1.488,0,.7-.171c-1.632-.034-2.778.159-4.117.188-.345-.2-2.613.074-3.774-.1l1.048-.053c-2.238.036-2.595-.083-4.679-.015,1.769.065,1.78.025,4.356.185-2.587-.081-4.47.111-6.838,0,.157-.047.752-.077.173-.125-.463.1-2.231,0-1.882.115-.735-.04-.863-.15-1.314-.166l-1.351.079a.439.439,0,0,1-.1.031l-1.647.083c.333-.016-.025-.073-.509-.1h.08c-.115-.007-.149-.022-.149-.04-3.67-.122-6.986.234-10.76.129l.08-.063-.882.077c.456-.049-.536-.068-.594-.118l-2.7.136c-.061-.055.1-.18.762-.156" transform="translate(-13.117)" fill="#fff"/>
    <path id="Path_194" data-name="Path 194" d="M35.954,248.167c.945.064,1.92-.068,2.743-.073l-.28.054.828-.046-.01.078c1.372-.035,3.071.045,3.573-.079l-.16.125,1.454-.1-.834.085.238,0c.747-.025.892-.011,2.116-.033l-.134.007.079.007c1.049-.023,1.962-.055,2.162-.054l-.147.046a4.96,4.96,0,0,0,.757-.022l-.215.07c.677-.006.634.029.2.087l.435,0a6.365,6.365,0,0,1-.787.045l-.4.042c.631-.01,1.3,0,1.985.023l1.011.119a6.486,6.486,0,0,1,2.163-.293l-.491.086c.36.033.6.045.772.043-.708.064-1.467.138-2.1.2a26.775,26.775,0,0,0,4.056-.126c-.07.023-.549.031-.7.077,2.051.043,4.2-.172,5.782-.2.669.079-1.319.053-.991.169a18.078,18.078,0,0,0,1.987-.046c-.311.148,1.906.008.332.152,3,.068,6.3-.075,9.332-.164-.149.047-.149.086-.022.117a23.974,23.974,0,0,0-3.1.151c.669.079,1.592-.107,1.784-.06a4.607,4.607,0,0,0-1.039.116,12.075,12.075,0,0,0,1.989-.051l-.336-.039a20.519,20.519,0,0,1,3.109-.229c.744.095-.006.078-.021.195a16.864,16.864,0,0,1-2.322.178c.309.025.378.071.231.093-2.453-.1-4.861-.024-7.656-.084l-.842.124-.053-.094c-1.364-.042-.293.132-1.175.122.336,0,.275-.015.344-.039a9.524,9.524,0,0,1-1.771-.057c.425-.1,1.713-.037,1.316-.169-1.581.106-4.04.047-4.272.274-2.937-.092-6.581.05-9.048.07-.34-.039.208-.031.083-.062-.978.131-3.28-.092-3.294.025a3.131,3.131,0,0,1-.8-.15c-.366.033-.777.056-1.213.073l-.061.014.678.079a3.238,3.238,0,0,1-.891.03.823.823,0,0,0,.341-.038c-.394-.028-.834-.046-1.336-.061l.036.007c-1.986.034-4.272.006-6.074.132.89-.067.063-.123.118-.167a36.347,36.347,0,0,1-4.77.151c.007-.04-.128-.071.078-.1l-1.03.077.139-.047h-.075a11.43,11.43,0,0,1-1.6.071,1.381,1.381,0,0,1-.22-.042l-.662.026c.291.055.355.1-.637.139l-.27-.063a7.241,7.241,0,0,0,.75.017c.356-.045.119-.064-.13-.081a21.388,21.388,0,0,1-2.226.019c.222-.007.379-.015.491-.024l-.655.012c-.152.125,1.081.095,1.209.127-1.633-.026-3.595-.21-5.112-.126l.143-.047c-1.934.106-1.128-.229-2.667-.028-.813-.033.293-.133-.934-.143-.346,0-.143.047-.081.063a20.225,20.225,0,0,0-2.056,0l.3-.132c-1.658.091-3.4.322-4.829.266a9.917,9.917,0,0,1,1.324-.169c-1.94.183-4.656.023-6.451.121.536.086-.85.2.3.274a5.253,5.253,0,0,1,1.452-.061c-1,.289-4.159-.14-4.464.11l-.263-.1c-.275.015-.974.092-.49.124L0,249.307a13.2,13.2,0,0,1,2.62-.144c.564-.108-.81-.071-.311-.2-1.326.169-.815-.072-2.186-.036.621.148,1.375-.64,2.312-.773a2.5,2.5,0,0,0,.723.045l.019-.118,1.37,0-.642.171c1.5.034,2.561-.159,3.793-.188.317.2,2.407-.074,3.476.1l-.964.053c2.06-.035,2.389.083,4.309.016-1.63-.066-1.64-.026-4.013-.187,2.383.081,4.117-.111,6.3,0-.144.047-.694.077-.159.125.427-.1,2.056,0,1.733-.113.678.039.795.149,1.211.166l1.245-.079a.341.341,0,0,1,.092-.032l1.517-.083c-.307.017.024.073.468.1h-.073c.105.007.137.022.137.04,3.381.123,6.434-.233,9.912-.128l-.074.062.813-.077c-.421.049.492.068.547.118l2.485-.136c.055.055-.092.18-.7.156" transform="translate(-0.001 -213.028)" fill="#fff"/>
    <path id="Path_195" data-name="Path 195" d="M685.515,249.218c-.946-.064-1.922.066-2.744.073l.281-.054-.828.045.009-.078c-1.371.037-3.071-.045-3.573.08l.161-.125-1.455.1.834-.083-.237,0c-.748.025-.892.01-2.116.033l.134-.008-.08-.006c-1.049.022-1.961.054-2.162.054l.147-.047a4.813,4.813,0,0,0-.756.023l.215-.07c-.678,0-.634-.03-.2-.087l-.436,0a6.344,6.344,0,0,1,.788-.045l.394-.042c-.63.01-1.3,0-1.983-.024l-1.012-.119a6.42,6.42,0,0,1-2.162.293l.49-.085c-.36-.033-.6-.044-.772-.043.708-.065,1.468-.137,2.106-.2a26.8,26.8,0,0,0-4.057.125c.071-.023.55-.03.7-.077-2.051-.042-4.2.173-5.781.2-.669-.079,1.318-.053.99-.171a17.768,17.768,0,0,0-1.988.047c.311-.148-1.906-.008-.331-.152-3-.068-6.3.074-9.332.164.149-.047.149-.086.02-.118a23.988,23.988,0,0,0,3.1-.15c-.669-.08-1.591.107-1.784.06a4.626,4.626,0,0,0,1.04-.116,11.945,11.945,0,0,0-1.99.051l.337.039a20.673,20.673,0,0,1-3.109.229c-.744-.1,0-.078.02-.2-.486.047-2.04-.081-2.54.043l1.239.009c-.868.033-2.176.023-1.995.013-.685.038.256-.3,2.288-.222l-.346.038c1.268.1,2.569-.062,3.676-.057-.309-.026-.378-.072-.231-.093,2.453.1,4.862.024,7.657.084l.841-.124.053.094c1.365.041.293-.133,1.176-.122-.336,0-.276.015-.345.038a9.587,9.587,0,0,1,1.771.058c-.425.1-1.713.036-1.316.17,1.582-.106,4.041-.048,4.273-.275,2.936.092,6.58-.05,9.048-.07.34.04-.21.031-.084.063.979-.132,3.28.092,3.294-.025a3.2,3.2,0,0,1,.8.149c.366-.032.776-.056,1.213-.072l.061-.014-.677-.079a3.308,3.308,0,0,1,.891-.031.811.811,0,0,0-.341.039c.394.026.833.046,1.335.06l-.036-.007c1.986-.033,4.272,0,6.075-.131-.89.065-.063.123-.118.166a36.351,36.351,0,0,1,4.768-.15c-.006.039.129.07-.078.1l1.031-.077-.138.047h.076a11.252,11.252,0,0,1,1.6-.072,1.323,1.323,0,0,1,.221.043l.662-.026c-.292-.056-.356-.105.637-.14l.269.063a7.216,7.216,0,0,0-.749-.016c-.357.044-.119.064.131.08a21.992,21.992,0,0,1,2.226-.019c-.222.007-.38.015-.492.025l.656-.011c.152-.125-1.082-.1-1.21-.127,1.633.026,3.6.208,5.112.126l-.143.047c1.934-.106,1.128.228,2.667.028.813.033-.293.133.935.142.347,0,.144-.046.082-.062a20.187,20.187,0,0,0,2.055,0l-.3.132c1.659-.091,3.4-.322,4.83-.264a10.139,10.139,0,0,1-1.325.169c1.941-.183,4.656-.023,6.451-.121-.536-.087.85-.2-.3-.274a5.3,5.3,0,0,1-1.452.06c1-.287,4.16.14,4.464-.109l.264.1c.275-.016.973-.093.491-.125l1.98.066a13.086,13.086,0,0,1-2.62.143c-.563.109.811.072.311.2,1.326-.171.815.071,2.188.034-.621-.148-1.377.641-2.313.774a2.487,2.487,0,0,0-.721-.045l-.018.117-1.37,0,.641-.171c-1.5-.034-2.56.16-3.793.189-.317-.2-2.407.073-3.476-.1l.965-.054c-2.061.036-2.389-.082-4.31-.015,1.631.065,1.64.026,4.013.186-2.382-.082-4.116.11-6.3,0,.145-.046.694-.077.16-.125-.427.1-2.057,0-1.734.114-.677-.04-.795-.15-1.209-.166l-1.245.079a.411.411,0,0,1-.093.031l-1.518.084c.307-.017-.023-.073-.468-.1h.073c-.105-.007-.137-.022-.137-.04-3.381-.121-6.434.234-9.91.129l.073-.063-.812.078c.42-.049-.494-.069-.547-.119l-2.485.136c-.056-.055.091-.179.7-.155" transform="translate(-553.908 -213.028)" fill="#fff"/>
    <path id="Path_196" data-name="Path 196" d="M639.845,260.775a3.107,3.107,0,0,0,.721-.055l-.073.041.218-.034,0,.058a3.6,3.6,0,0,0,.938-.06l-.042.094.382-.074-.219.063.062,0c.2-.018.235-.008.556-.025l-.036.006.021,0c.276-.016.515-.04.568-.04l-.039.036a.478.478,0,0,0,.2-.017l-.056.053c.178,0,.166.022.052.065l.114,0a.593.593,0,0,1-.207.033l-.1.032a3.267,3.267,0,0,1,.522.018l.266.088c.238-.08.137-.239.568-.219l-.128.063a.789.789,0,0,0,.2.033c-.185.048-.385.1-.552.152.245.136.705-.066,1.065-.094-.018.017-.144.023-.182.057a12.039,12.039,0,0,0,1.52-.15c.175.06-.347.039-.261.127.215-.033.458.041.522-.034-.082.111.5.006.087.113a17.165,17.165,0,0,0,2.453-.123c-.04.036-.04.065-.007.088a2.282,2.282,0,0,0-.813.113c.175.06.417-.08.467-.045-.089.029-.268.028-.273.086.231.066.361-.026.523-.038l-.088-.03c.506-.079.28-.2.817-.172.2.071,0,.058-.006.147.128-.034.536.062.668-.032l-.325-.007a2.714,2.714,0,0,1,.523-.009c.181-.029-.066.228-.6.166l.09-.029a4.429,4.429,0,0,0-.965.043c.08.02.1.054.06.069-.644-.073-1.276-.017-2.011-.062l-.22.093-.015-.071c-.358-.031-.077.1-.308.093.087,0,.071-.011.089-.03-.417.08-.231-.065-.465-.042.112-.075.45-.027.346-.127-.416.079-1.062.036-1.122.2a21.885,21.885,0,0,0-2.377.053c-.089-.03.055-.023.022-.047-.258.1-.862-.069-.866.019a.438.438,0,0,1-.21-.112,2.4,2.4,0,0,1-.318.054l-.016.01.177.06c-.165.04-.254.04-.235.023a.1.1,0,0,0,.09-.029,3.233,3.233,0,0,0-.352-.046l.009.006a11.729,11.729,0,0,0-1.6.1c.234-.049.017-.093.031-.125a3.414,3.414,0,0,1-1.253.112c0-.029-.034-.053.021-.076l-.27.057.036-.036h-.019a1.06,1.06,0,0,1-.422.054.175.175,0,0,1-.057-.032l-.174.019c.077.042.094.079-.167.1l-.071-.047a.663.663,0,0,0,.2.013c.094-.033.032-.048-.034-.061a2.009,2.009,0,0,1-.584.015.894.894,0,0,0,.128-.018l-.172.008c-.04.094.284.072.318.1a7.562,7.562,0,0,0-1.343-.095l.038-.036c-.508.08-.3-.171-.7-.021-.214-.024.076-.1-.246-.107-.09,0-.038.034-.022.047-.4.033-.174-.089-.539,0l.079-.1a5.491,5.491,0,0,1-1.269.2c.023-.076.255-.069.348-.127a15.554,15.554,0,0,1-1.695.092c.14.065-.224.151.078.2.078-.1.22-.033.383-.045-.262.215-1.094-.105-1.173.082l-.07-.077c-.072.011-.255.069-.129.093l-.52-.049c.183-.057.568-.19.688-.108.148-.081-.213-.054-.081-.148-.348.128-.215-.053-.575-.025.163.11.362-.481.607-.581.015.022.075.039.19.033l0-.088.36,0-.167.128a6,6,0,0,0,1-.142c.082.148.632-.055.913.075l-.253.039c.541-.026.628.062,1.131.012a8.027,8.027,0,0,1-1.054-.14c.625.062,1.081-.083,1.655,0-.038.036-.182.058-.042.094.112-.076.541,0,.456-.086.177.03.208.112.318.125l.326-.06a.076.076,0,0,1,.024-.023l.4-.063c-.08.014.007.056.124.072H636.4c.027.006.036.017.036.031.889.09,1.69-.175,2.6-.1l-.018.047.213-.058c-.11.038.129.052.144.089l.653-.1c.014.041-.025.134-.185.116" transform="translate(-541.478 -223.892)" fill="#fff"/>
    <path id="Path_197" data-name="Path 197" d="M474.615,264.805a3.162,3.162,0,0,0-.72.055l.073-.04-.218.034,0-.06a3.547,3.547,0,0,0-.939.061l.043-.094-.383.074.219-.064h-.063c-.2.018-.234.008-.555.024l.036-.006-.022,0c-.276.017-.515.041-.568.04l.039-.034a.46.46,0,0,0-.2.016l.056-.051c-.178,0-.166-.022-.051-.065l-.115,0a.591.591,0,0,1,.206-.034l.1-.032a3.21,3.21,0,0,1-.521-.017l-.266-.089c-.238.081-.137.24-.568.22l.128-.064a.729.729,0,0,0-.2-.032c.185-.048.386-.1.553-.153-.245-.135-.706.068-1.066.1.018-.017.144-.023.182-.058a11.846,11.846,0,0,0-1.518.151c-.175-.06.346-.039.261-.128-.215.034-.459-.041-.522.036.081-.111-.5-.006-.087-.115a17.329,17.329,0,0,0-2.453.123c.039-.034.039-.064.006-.087a2.283,2.283,0,0,0,.814-.113c-.176-.06-.418.08-.468.045.091-.028.269-.028.273-.087-.23-.065-.361.027-.523.039l.089.03c-.506.079-.279.2-.818.171-.195-.071,0-.058.006-.145-.127.034-.536-.062-.668.031l.325.008a2.828,2.828,0,0,1-.523.009c-.18.029.068-.228.6-.167l-.092.03a4.5,4.5,0,0,0,.967-.043c-.081-.019-.1-.054-.061-.07.645.073,1.277.018,2.012.063l.22-.093.014.07c.36.032.078-.1.309-.092-.088,0-.072.012-.089.029.417-.08.231.065.465.043-.112.076-.451.026-.346.127.415-.08,1.06-.036,1.122-.206a22.146,22.146,0,0,0,2.378-.051c.089.03-.055.023-.023.047.258-.1.862.069.866-.019a.428.428,0,0,1,.211.112,2.24,2.24,0,0,1,.318-.055l.016-.01-.179-.06c.165-.04.254-.039.235-.022a.1.1,0,0,0-.09.029,3.326,3.326,0,0,0,.352.045l-.009-.006a11.753,11.753,0,0,0,1.6-.1c-.234.049-.016.092-.03.125.254-.125-.325.7-.325.7-.015-.041.024-.135.184-.117" transform="translate(-398.495 -226.842)" fill="#fff"/>
    <path id="Path_198" data-name="Path 198" d="M436.53,265.484c.039-.034.039-.064.007-.087a2.279,2.279,0,0,0,.813-.113c-.175-.06-.417.08-.468.045.09-.029.269-.029.274-.087-.231-.065-.361.028-.523.039l.088.03c-.506.079-.279.2-.818.171-.195-.071,0-.058.006-.145-.127.034-.535-.062-.668.031l.326.008a2.841,2.841,0,0,1-.525.009c-.18.029.068-.228.6-.167l-.092.03a4.5,4.5,0,0,0,.967-.044c-.081-.019-.1-.054-.061-.07.645.073.869.285.072.352" transform="translate(-373.627 -227.734)" fill="#fff"/>
    <path id="Path_199" data-name="Path 199" d="M383.285,265.12c.019-.017.144-.023.182-.058a11.827,11.827,0,0,0-1.518.151c-.175-.06.346-.039.261-.128-.215.034-.459-.041-.522.036.081-.111-.5-.006-.087-.114a17.3,17.3,0,0,0-2.453.122c.039-.034.039-.064.006-.087a2.283,2.283,0,0,0,.814-.113c-.175-.06-.418.08-.468.044.091-.029.269-.029.274-.087-.231-.065-.361.027-.524.039l.089.03c-.506.079-.279.2-.818.171-.195-.071,0-.058.006-.145-.127.034-.535-.062-.668.031l.326.008a2.848,2.848,0,0,1-.524.009c-.18.029.068-.228.6-.167l-.092.03a4.494,4.494,0,0,0,.966-.043c-.081-.019-.1-.054-.061-.07.645.073,1.277.018,2.012.063l.22-.093.014.07c.359.032.078-.1.309-.092-.088,0-.072.012-.089.029.417-.08.231.065.465.043-.112.076-.451.026-.346.127.415-.08,1.06-.035,1.122-.206.772.069.863.375.5.4" transform="translate(-324.339 -227.378)" fill="#fff"/>
    <path id="Path_200" data-name="Path 200" d="M40.2,262.812c.917.038,1.864-.039,2.664-.042l-.273.032.8-.028-.008.046c1.331-.021,2.983.026,3.469-.046l-.156.072,1.413-.057-.809.049h.229c.726-.014.868-.006,2.057-.019l-.13,0,.078,0c1.019-.013,1.9-.031,2.1-.031l-.144.028c.26.014.465,0,.736-.014l-.21.041c.658,0,.616.017.19.05h.424c-.2.017-.465.024-.765.026l-.383.024c.611-.006,1.262,0,1.926.014l.982.07a10.182,10.182,0,0,1,2.1-.171l-.475.049c.348.019.578.025.748.025-.686.038-1.425.08-2.044.119.906.105,2.61-.053,3.941-.073-.069.014-.534.017-.676.045,1.993.025,4.077-.1,5.616-.117.649.046-1.28.03-.962.1.8-.027,1.695.032,1.931-.028-.3.087,1.851.006.322.089,2.91.039,6.119-.044,9.064-.1-.144.027-.144.049-.021.068-1,0-2.462.025-3.01.088.649.047,1.545-.062,1.732-.034a7.079,7.079,0,0,0-1.008.068c.851.05,1.331-.022,1.933-.03l-.328-.024c1.874-.061,1.035-.158,3.02-.133.723.055,0,.046-.019.113.472-.026-1.18.105-2.256.1.3.015.366.042.224.054-2.382-.056-4.722-.014-7.436-.048l-.816.072-.051-.055c-1.325-.024-.285.077-1.142.072.325,0,.267-.009.334-.023a15.618,15.618,0,0,1-1.72-.033c.412-.06,1.664-.022,1.278-.1-1.537.063-3.924.029-4.149.16-2.853-.054-6.391.03-8.789.04-.33-.023.2-.017.081-.035-.952.075-3.186-.054-3.2.015a4.956,4.956,0,0,1-.775-.088c-.357.019-.755.033-1.179.042l-.057.008.657.047a5.249,5.249,0,0,1-.866.017,1.267,1.267,0,0,0,.332-.023c-.383-.015-.81-.026-1.3-.034l.034,0c-1.929.019-4.148,0-5.9.076.866-.038.062-.071.115-.1-.944.1-2.973.1-4.631.088,0-.023-.126-.041.075-.06l-1,.045.134-.027H34.18c-.666.03-1.215.063-1.554.041a2.128,2.128,0,0,1-.214-.025l-.643.016c.283.032.346.061-.617.08l-.263-.037c.195.006.459.019.728.01.348-.026.117-.038-.126-.047-.831.021-1.587.036-2.162.011.215,0,.369-.009.478-.015l-.638.007c-.147.073,1.051.056,1.175.074-1.585-.016,3.494-.75,6.871-.689l-.072.037.789-.045c-.408.029.479.039.531.069l2.414-.08c.055.032-.088.105-.68.091" transform="translate(-25.043 -225.663)" fill="#fff"/>
    <path id="Path_201" data-name="Path 201" d="M865.278,262.812c.918.038,1.867-.039,2.665-.042l-.273.032.8-.028-.009.046c1.331-.021,2.982.026,3.47-.046l-.157.072,1.413-.057-.81.049h.231c.725-.014.866-.006,2.054-.019l-.128,0,.078,0c1.018-.013,1.9-.031,2.1-.031l-.143.028c.259.014.465,0,.735-.014l-.208.041c.657,0,.616.017.189.05h.424c-.2.017-.465.024-.765.026l-.383.024c.613-.006,1.262,0,1.928.014l.981.07a10.176,10.176,0,0,1,2.1-.171l-.476.049c.348.019.577.025.749.025-.687.038-1.424.08-2.045.119.9.105,2.609-.053,3.941-.073-.068.014-.533.017-.674.045,1.991.025,4.075-.1,5.615-.117.649.046-1.28.03-.961.1.8-.027,1.694.032,1.929-.028-.3.087,1.852.006.323.089,2.909.039,6.12-.044,9.064-.1-.144.027-.144.049-.021.068-1,0-2.461.025-3.011.088.65.047,1.546-.062,1.734-.034a7.1,7.1,0,0,0-1.009.068c.851.05,1.332-.022,1.932-.03l-.325-.024c1.871-.061,1.034-.158,3.019-.133.724.055,0,.046-.018.113.47-.026-1.181.105-2.257.1.3.015.368.042.226.054-2.382-.056-4.723-.014-7.437-.048l-.817.072-.052-.055c-1.326-.024-.285.077-1.143.072.328,0,.268-.009.334-.023a15.6,15.6,0,0,1-1.719-.033c.413-.06,1.664-.022,1.278-.1-1.536.063-3.924.029-4.149.16-2.854-.054-6.393.03-8.789.04-.33-.023.2-.017.081-.035-.951.075-3.186-.054-3.2.015a4.957,4.957,0,0,1-.775-.088c-.356.019-.755.033-1.179.042l-.059.008.657.047a5.231,5.231,0,0,1-.865.017,1.255,1.255,0,0,0,.331-.023c-.382-.015-.808-.026-1.3-.034l.034,0c-1.929.019-4.15,0-5.9.076.865-.038.063-.071.116-.1-.945.1-2.973.1-4.633.088.007-.023-.125-.041.077-.06l-1,.045.134-.027h-.073c-.667.03-1.216.063-1.555.041a2.072,2.072,0,0,1-.213-.025l-.644.016c.284.032.346.061-.618.08l-.261-.037c.192.006.458.019.728.01.346-.026.116-.038-.127-.047-.831.021-1.588.036-2.162.011.216,0,.368-.009.477-.015l-.637.007c-.148.073,1.051.056,1.175.074-1.586-.016,3.493-.75,6.87-.689l-.072.037.79-.045c-.409.029.479.039.531.069l2.414-.08c.053.032-.089.105-.682.091" transform="translate(-733.744 -225.663)" fill="#fff"/>
    <path id="Path_202" data-name="Path 202" d="M244.15,43.216l1.748-5.962a34.833,34.833,0,0,0-8.812-1.482c-4.354,0-10.666,1.428-10.666,6.84,0,4.692,3.233,5.833,7.51,6.633,6.036,1.145,7.617,1.809,7.546,4.564,0,3.414-3.136,4.495-5.955,4.495-4.015,0-7.362-3.518-7.931-7.35l-.455-.182-1.888,6.387a25.045,25.045,0,0,0,10.867,2.17c4.728,0,10.979-2.328,10.979-7.919,0-4.55-3.436-5.623-8.763-6.667-5.311-1.042-6.294-1.812-6.294-3.833,0-2.782,2.327-4.112,4.877-4.112,3.634,0,6.252,2.927,6.854,6.271Z" transform="translate(-193.473 -30.726)" fill="#fff"/>
    <path id="Path_203" data-name="Path 203" d="M398.034,46.8h.686c1.395-1.773,4.594-4.937,7.045-4.937,1.5,0,1.922,1.008,1.922,2.3V56.3c0,3.1-.132,5.926-3.13,6.091V63c2.344,0,9.944,0,12.013,0v-.61c-2.721-.168-2.852-3-2.852-6.091V44.168c0-1.3.425-2.3,1.922-2.3,2.451,0,5.649,3.164,7.045,4.937h.686l-1.783-6.1H399.817Z" transform="translate(-341.889 -34.959)" fill="#fff"/>
    <path id="Path_204" data-name="Path 204" d="M789.906,39.717v.476c2.786.611,2.921,2.9,2.921,5.6v8.832c0,2.459-.931,6.263-3.756,7.058v.479c1.412,0,6.983,0,8.4,0v-.513c-2.927-.76-3.442-4.57-3.442-7.023V43.772l17.219,18.02c.252.282.811.925,1.185.925.211,0,.617-.214.617-1.068v-14.4c0-2.459.93-6.264,3.755-7.058v-.479c-1.412,0-6.982,0-8.4,0v.513c2.929.759,3.442,4.57,3.442,7.023v5.909L798.051,39.717c-1.354,0-6.8,0-8.146,0" transform="translate(-677.768 -34.115)" fill="#fff"/>
    <path id="Path_205" data-name="Path 205" d="M1014.7,43.216l1.748-5.962a34.851,34.851,0,0,0-8.812-1.482c-4.354,0-10.666,1.428-10.666,6.84,0,4.692,3.232,5.833,7.51,6.633,6.037,1.145,7.617,1.809,7.547,4.564,0,3.414-3.137,4.495-5.955,4.495-4.016,0-7.364-3.518-7.934-7.35l-.453-.182L995.8,57.158a25.042,25.042,0,0,0,10.867,2.17c4.727,0,10.979-2.328,10.979-7.919,0-4.55-3.434-5.623-8.762-6.667s-6.294-1.812-6.294-3.833c0-2.782,2.326-4.112,4.876-4.112,3.635,0,6.252,2.927,6.854,6.271Z" transform="translate(-855.334 -30.726)" fill="#fff"/>
    <path id="Path_206" data-name="Path 206" d="M74.215,86.972l-2.091,4.26H70.876l.86-1.688,1.854-3.85Z" transform="translate(-60.878 -73.606)" fill="#fff" fill-rule="evenodd"/>
    <path id="Path_207" data-name="Path 207" d="M285.2,324.179c0-.535-.368-.731-.578-.7s-.158-.14-.473-.056a1.888,1.888,0,0,0-.762.253,15.056,15.056,0,0,1-1.446.788,3.249,3.249,0,0,1-.972.365c-.394.085-.684.562-1.262.675-.5.141-.921.59-1.1.534-.184-.083-.184.029-1.132.394-.946.338-1.024.141-1.234-.084s-.29-.366-.842-.057c-.262.17-.237.7-.761,1.013-.552.309-1.473.168-1.525.618-.053.591.473.338.842.309.394-.056.631-.028.92-.337s.447.056.763.027c.341-.027.972.535,1.262.759.394.282.867-.253,1.157.029a3.378,3.378,0,0,0,1.629-.282c.316-.168,1.184-.112,1.315-.28.105-.17.763-.17,1-.366.236-.224,1.366-.814,1.761-1.1a4.246,4.246,0,0,0,1.13-1.631c.053-.281.341-.365.315-.871m-1.787.732a1.266,1.266,0,0,1-.447,1.152c-.394.338.079.282-.63.675-.685.365-1.026.647-1.315.479-.263-.17-.4.28-1.131.224-.71-.085-.972.421-1.445.224s-1.1.029-1.183-.365c-.106-.421.237-.365.342-.421a3.324,3.324,0,0,0,1.129-.534c.316-.226.815-.169,1.079-.31a2.878,2.878,0,0,1,.867-.45c.315-.056.631-.421.972-.534.369-.112.578-.534,1.026-.562.42,0,.735-.112.735.423" transform="translate(-234.58 -277.78)" fill="#fff" fill-rule="evenodd"/>
    <path id="Path_208" data-name="Path 208" d="M341.08,304.9c-.211-.085-.263,0-.394.028a5.576,5.576,0,0,1-1.814.534c-.841-.282-1.079-.085-1.367-.731-.262-.647.684-1.631.5-2.643-.105-.7-.446-.591-.867-.282-.132.113-.368-.027-.5.366a11.76,11.76,0,0,1-.657,1.631c-.342.618-.4,1.517.92,2.277,1.079.618,1.552,0,1.893.056.448.085,1.5-.562,1.893-.618.288-.056.788-.45.394-.618m-1.445-7.395c-.211-.337-1.026.112-1.42.253a32.142,32.142,0,0,0-2.891,2.109c-.762.562-1.13,1.011-1.682,1.461a7.879,7.879,0,0,1-1.735,1.068,3.888,3.888,0,0,0-.842.591,2.708,2.708,0,0,1-.815.505.931.931,0,0,0-.656.366c-.132.168-.342.2-.552.309a4.192,4.192,0,0,1-.894.421c-.183.056-.814.7-.447.731.447.029.394-.337.946-.365a2.333,2.333,0,0,0,.842-.478,2.455,2.455,0,0,1,.736-.421,4.137,4.137,0,0,0,1.262-.676,10.274,10.274,0,0,1,1.445-.9,9.568,9.568,0,0,0,2.05-1.6c.29-.309.421.282-.051.732a17.716,17.716,0,0,1-2.234,2.277c-.447.282-1,1.209-1.709,1.575-.71.338-2.077,2.587-2.813,3.037-.738.421-.921,1.208-1.814,1.743-.921.534-2.051,2.389-2.735,2.727-.71.338-.763.984-1,1.153-.236.2-1.656.928-.893,1.237a2.272,2.272,0,0,0,2.1-.7c.183-.28,1.42-.562,1.42-.928,0-.338,1.34-.956,1.472-1.293a3.442,3.442,0,0,1,1.236-1.069c.341-.2.183-.31.42-.479.237-.2,1.262-.9.526-.9-1.13,0-.815,1.32-1.367.928s1.157-1.378,1.525-2.137c.341-.787,1-.647,1.235-1.181s.973-.759,1.131-1.209c.131-.477,1.577-1.6,1.656-1.94.079-.309.763-.534,1.183-1.181.394-.646,1.84-1.349,1.971-1.911a2.986,2.986,0,0,1,1.341-1.434c.368-.17.237-.309.789-.956.578-.647,1.524-1.1,1.262-1.462" transform="translate(-276.159 -255.432)" fill="#fff" fill-rule="evenodd"/>
    <path id="Path_209" data-name="Path 209" d="M483.819,325.907c0-.282-.394-.141-.527-.029a5.856,5.856,0,0,1-2.05.871,8.543,8.543,0,0,1-1.892.253,4.609,4.609,0,0,1-1.051-.029c-.553-.112-1.684-.225-1.684-1.04,0-.112.341-.14.447-.168a5.837,5.837,0,0,0,1.367-.562,4.339,4.339,0,0,1,1.209-.844c.394-.112.631-.675.868-.984a4.16,4.16,0,0,0,.236-.647c.026-.224-.289-.309-.42-.449l-.315-.113c-.211,0-.4.141-.6.141-1.209,0-2.471,1.631-2.708,1.716-.526.14-1.314,1.828-1.314,2.333a.965.965,0,0,0,.762.9c.342.056.473.338.947.365a1.69,1.69,0,0,1,.656.085,3.364,3.364,0,0,0,1.078.112,2.14,2.14,0,0,0,.421-.056c.394-.141.683.085.972-.112a5.053,5.053,0,0,1,1.288-.309c.315-.057,1-.479,1.262-.535.368-.085,1.025-.45,1.051-.9m-4.391-2.672c0,.085-.078.506-.211.506-.472,0-.709.7-.971.7-.158,0-.237.168-.4.224-.105.056-.262,0-.42,0l-.053-.028a1.563,1.563,0,0,1,.42-.535,10.421,10.421,0,0,1,1.471-.9Z" transform="translate(-408.326 -276.724)" fill="#fff" fill-rule="evenodd"/>
    <path id="Path_210" data-name="Path 210" d="M552.909,326.347c.42-.282.159-.788-.341-.535-.079.029-.053.112-.132.112h-.026c-.052,0-.1.029-.341.169a5.5,5.5,0,0,1-1.63.618,2.812,2.812,0,0,0-.579.253,1.925,1.925,0,0,1-.472.168,1.494,1.494,0,0,0-.6.168,2.581,2.581,0,0,1-.632.168c-.183.057-.394.085-.577.141a5.465,5.465,0,0,1-2.84-.309c-.577-.393-.5-.814.185-1.743a3.676,3.676,0,0,1,.893-.9c.262-.2.525-.309.763-.479a2.846,2.846,0,0,1,1.34-.309c.447-.056.526.226.369.479-.133.2-.421.787-.632.9a4.894,4.894,0,0,1-.552.28c-.289.085-.893.844-.341,1.014.394.084.5.056.631-.029a.754.754,0,0,1,.157-.141c.342-.281.657-.168.894-.675a.859.859,0,0,1,.42-.506c.58-.394.316-.533.632-.956.366-.506-.238-1.434-1.237-1.237a4.049,4.049,0,0,1-.92.141.8.8,0,0,0-.368.112,1.542,1.542,0,0,1-.421.225,12.1,12.1,0,0,0-1.892.956c-2.55,1.969-1.236,3.261-.342,3.712a5.106,5.106,0,0,0,3.129.168c.29-.2.709-.027,1.025-.253.289-.225.763,0,1.078-.309.315-.282,1.052-.282,1.21-.477a.909.909,0,0,1,.394-.17c.21-.084.315.029.63-.112a5.989,5.989,0,0,0,.684-.337,3.075,3.075,0,0,0,.447-.309" transform="translate(-466.552 -277.417)" fill="#fff" fill-rule="evenodd"/>
    <path id="Path_211" data-name="Path 211" d="M622.344,284.5c.053-.337-.158-.506-.211-.815-.078-.421-.63-.056-.814.056-.132.056-.6.45-.105.647.4.141.132.45.526.591.422.168.526-.141.6-.479m-1.157,8.266c.236-.337.079-.421-.13-.393a6.9,6.9,0,0,0-.789.365c-.342.084-.657.393-1.025.365a3.52,3.52,0,0,0-.632.168,5.965,5.965,0,0,1-.893.224c-.367.056-.552.113-.71.141-.315.029-.447-.2-.735-.168-.263.027-.263.168-.263-.253a1.263,1.263,0,0,1,.394-.759,5.267,5.267,0,0,0,.737-.815,3.959,3.959,0,0,1,1.1-1.125.927.927,0,0,1,.237-.112.8.8,0,0,0,.526-.844c-.053-.365-.184-.393-.368-.224a4.671,4.671,0,0,1-.552.478,6.48,6.48,0,0,0-1.473,1.238,3.905,3.905,0,0,1-1.13.955c-.526.31-1.394,1.293-.789,2.025a1.109,1.109,0,0,0,.921.421c.289-.027.552-.14.788-.14a3.267,3.267,0,0,0,1.157-.338,1.224,1.224,0,0,1,.316-.056c.316,0,.6.14.921-.085.315-.2.682-.224,1-.394a.321.321,0,0,0,.158-.027.864.864,0,0,0,.5-.2,2.466,2.466,0,0,1,.394-.2.485.485,0,0,0,.341-.253" transform="translate(-527.811 -243.502)" fill="#fff" fill-rule="evenodd"/>
    <path id="Path_212" data-name="Path 212" d="M676.988,326.742c.236-.253.053-.337-.263-.365-.262,0-.472.338-.735.365-.183,0-.736.45-1,.365-.133-.056-.394.224-.5.168a.372.372,0,0,0-.342.029c-.29.141-.42-.029-.631-.056-.71-.085-1.157-.224-.841-1.1a3.2,3.2,0,0,0,.236-.7c.026-.309.105-.309.184-.253.157.112.209-.112.262-.225l.026-.056a.238.238,0,0,0-.132-.365c-.236-.112-.893.2-1.157.309a1.09,1.09,0,0,0-.236.112c-.105,0-.132.057-.184.169a.308.308,0,0,1-.157.168.357.357,0,0,0-.184.168c-.079.112-.132.253-.262.282a4.509,4.509,0,0,0-.763.506l-.211.112a.434.434,0,0,1-.369.085c-.158-.029-.289.141-.394.224a.753.753,0,0,1-.552.2,3.183,3.183,0,0,0-.972.281,1.072,1.072,0,0,1-1.157-.337c-.237-.2-.237-.338-.21-.45a1.463,1.463,0,0,1,.262-.309c.21-.2.21-.365.526-.45s.368-.394.42-.394c.158-.028.4-.309.526-.534.132-.2.868-.168,1-.282.29-.2.5-.056.79-.027a.274.274,0,0,1,.131.027c.105.057,1.1-.168,1.13-.449.079-.563-.342-.759-.762-.844-.263-.056-.369.2-.6.112-.158-.083-.185-.056-.263-.027s-.105.027-.185.056a.66.66,0,0,0-.5.281c-.079.112-.262.112-.4.253-.078.085-.366.029-.447.169-.053.084-.289.028-.5.253-.183.253-.6.365-.814.7a.442.442,0,0,1-.237.2.754.754,0,0,0-.263.224c-.289.394-1.129,1.323-1.024,1.828.025.168.025.479.183.562a1.387,1.387,0,0,1,.211.2c.236.2.289.085.526.112a1.2,1.2,0,0,0,.631.028.616.616,0,0,1,.5-.056,1.475,1.475,0,0,0,.341-.056c.079-.029.158-.056.184-.029.157.112.526-.112.657-.112a.579.579,0,0,0,.29-.141.83.83,0,0,1,.552-.2,1.118,1.118,0,0,0,.841-.533c.236-.281.473-.168.788-.168.133-.029.158.056.211.224a1.271,1.271,0,0,0,.158.619,1.373,1.373,0,0,0,1.183.647.579.579,0,0,1,.315,0,1.23,1.23,0,0,0,.71-.029.956.956,0,0,1,.394,0c.211.085.527-.112.685-.224.13-.112.21-.085.366-.112.369-.085.421-.31.6-.338a4.644,4.644,0,0,1,.552-.168c.211,0,.29-.309.448-.338a.355.355,0,0,0,.29-.168c.025-.028.078-.085.13-.141" transform="translate(-571.395 -277.531)" fill="#fff" fill-rule="evenodd"/>
    <path id="Path_213" data-name="Path 213" d="M755.576,303.488c-.053-.169.078-.506-.789.027-.4.253-.5.056-.894.394-.6.534-.735.141-1.235.506-.474.365-.342.085-.79.281a11.349,11.349,0,0,1-1.523.2c-.579.112-.815.478-1.184.112s.71-1.94,1.026-2.137a2.83,2.83,0,0,0,.788-.9c.341-.478-.078-.478.815-.9.71-.309,1.262-1.32,1.577-1.405a12.955,12.955,0,0,0,1.84-1.631c.394-.309.263-.647,0-1.012-.237-.365-1.393.788-2.208,1.069-.789.282-.632.562-1.079.759a11.467,11.467,0,0,1-1.944,1.1c-.6.282-.526.618-1.157.815-1,.338-.552.479-1.315.759-.315.112-.368.479-.763.591s-.419.085-.682.365c-.237.281-.211.534-.6.562-.552.056-.789.337-1.288.618-.368.226-.315.365-1,.535-.107.027-.448.617-.107.646.449.027.5-.337,1.026-.394a6.139,6.139,0,0,0,1.42-.731,3.45,3.45,0,0,0,1-.759c.211-.224.552-.365.893-.731s.552-.591.71-.506a3.127,3.127,0,0,0,1.262-.562c.316-.2.815-.591.631-.112-.158.393-.262.533-.526.647a2.391,2.391,0,0,0-.815,1.011,2.939,2.939,0,0,1-.919,1.238,2.189,2.189,0,0,0-.526,2.08.848.848,0,0,0,1.287.309,3,3,0,0,1,1.209-.2c.657-.029,1-.366,1.709-.479a2.911,2.911,0,0,0,1.473-.535c.106-.14.973-.421,1.13-.59.184-.2.6-.225.92-.337s.685-.506.632-.7" transform="translate(-638.122 -255.064)" fill="#fff" fill-rule="evenodd"/>
    <path id="Path_214" data-name="Path 214" d="M840.085,284.5c.053-.337-.157-.506-.21-.815-.08-.421-.632-.056-.815.056-.132.056-.6.45-.105.647.394.141.132.45.527.591.419.168.524-.141.6-.479m-1.157,8.266c.237-.337.079-.421-.132-.393a6.933,6.933,0,0,0-.788.365c-.341.084-.657.393-1.026.365a3.474,3.474,0,0,0-.63.168,6.042,6.042,0,0,1-.893.224c-.369.056-.553.113-.71.141-.316.029-.448-.2-.738-.168-.262.027-.262.168-.262-.253a1.26,1.26,0,0,1,.4-.759,5.314,5.314,0,0,0,.735-.815,3.971,3.971,0,0,1,1.1-1.125.928.928,0,0,1,.237-.112.8.8,0,0,0,.526-.844c-.053-.365-.184-.393-.369-.224a4.5,4.5,0,0,1-.552.478,6.469,6.469,0,0,0-1.471,1.238,3.892,3.892,0,0,1-1.13.955c-.526.31-1.393,1.293-.788,2.025a1.1,1.1,0,0,0,.92.421c.29-.027.552-.14.789-.14a3.279,3.279,0,0,0,1.156-.338,1.225,1.225,0,0,1,.316-.056c.315,0,.6.14.919-.085.316-.2.684-.224,1-.394a.321.321,0,0,0,.158-.027.859.859,0,0,0,.5-.2,2.567,2.567,0,0,1,.394-.2.483.483,0,0,0,.342-.253" transform="translate(-714.839 -243.502)" fill="#fff" fill-rule="evenodd"/>
    <path id="Path_215" data-name="Path 215" d="M898.414,290.99c0-.226-.078-.366-.788-.366-.4,0-.79.057-1.184.057-.368,0-.735-.057-1.1-.057-.42,0-.814.169-1.209.169-.236,0-.447-.112-.683-.112-.342,0-.657.281-1.052.281-.552,0-1.078-.2-1.6-.2a1.749,1.749,0,0,0-.342.056c-.184.029-.473-.168-.736-.168-.5,0-1.025.112-1.551.112a5.742,5.742,0,0,1-1.393-.112l-.079-.085c.028-.7,2.735-1.911,3.076-2.39.289-.421,1.6-.758,1.6-1.264,0-.169-.13-.226-.263-.226-1.024,0-3.889,2.419-5.047,2.616a2.281,2.281,0,0,0-1.236.731,5.085,5.085,0,0,1-3.39,1.069h-.343c-.42-.029-2.6.843-2.6,1.264,0,.226.447.226.579.226,1,0,1.208-.675,1.918-.675.158,0,.448.027.448.224,0,.253-2.156,1.659-2.524,2.052-.369.422-.815.338-.973.506a.955.955,0,0,1-.657.394c-.289.085-.419.338-.709.394-.184.056-.815.253-.815.534a.345.345,0,0,0,.316.281,8.1,8.1,0,0,0,3-1.433,1.575,1.575,0,0,1,.289-.17,4.487,4.487,0,0,0,1.473-.928,6.015,6.015,0,0,1,2.05-1.518.117.117,0,0,1,.105.112c0,.282-.448.479-.631.564-.684.281-.947,1.743-1.788,2.22a.731.731,0,0,0-.369.618c0,1.181,1.184,1.35,2.025,1.406a9.309,9.309,0,0,0,1.867-.253,6.254,6.254,0,0,0,2.076-.45c.42-.226.789-.056,1.053-.394.1-.141.656-.281.761-.393s.394-.057.394-.253c0-.085-.132-.338-.21-.338a3.862,3.862,0,0,0-1.1.421,6.04,6.04,0,0,1-1.972.478c-.183,0-.841.282-1.025.282-.578.028-.606.056-1.105.056-.368,0-1.156-.112-1.156-.619,0-.9.868-1.49.947-1.716.105-.309.526-.59.761-.758.685-.479,1.367-1.743,2.209-1.743.262,0,.552.084.814.084.395,0,.789-.14,1.184-.14.289,0,.552.056.841.056.526,0,1.051-.113,1.6-.113.29,0,.579.085.868.085.368,0,.763-.112,1.13-.112.5,0,.972.085,1.471.085.29,0,.578-.085.868-.085a7.13,7.13,0,0,0,1.761-.085.936.936,0,0,1,.288-.027c.474,0,.631.112,1.13.112s.736,0,.736-.365" transform="translate(-752.224 -246.249)" fill="#fff" fill-rule="evenodd"/>
    <path id="Path_216" data-name="Path 216" d="M980.009,284.5c.053-.337-.157-.506-.21-.815-.079-.421-.631-.056-.814.056-.133.056-.6.45-.105.647.394.141.131.45.526.591.42.168.526-.141.6-.479m-1.157,8.266c.237-.337.08-.421-.13-.393a6.807,6.807,0,0,0-.788.365c-.342.084-.657.393-1.026.365a3.508,3.508,0,0,0-.631.168,6,6,0,0,1-.893.224c-.368.056-.553.113-.71.141-.315.029-.448-.2-.736-.168-.264.027-.264.168-.264-.253a1.259,1.259,0,0,1,.4-.759,5.33,5.33,0,0,0,.736-.815,3.959,3.959,0,0,1,1.1-1.125.918.918,0,0,1,.236-.112.8.8,0,0,0,.527-.844c-.053-.365-.185-.393-.369-.224a4.487,4.487,0,0,1-.552.478,6.5,6.5,0,0,0-1.473,1.238,3.883,3.883,0,0,1-1.129.955c-.527.31-1.394,1.293-.789,2.025a1.106,1.106,0,0,0,.92.421c.29-.027.552-.14.789-.14a3.28,3.28,0,0,0,1.157-.338,1.208,1.208,0,0,1,.315-.056c.316,0,.6.14.921-.085.315-.2.682-.224,1-.394a.321.321,0,0,0,.158-.027.858.858,0,0,0,.5-.2,2.527,2.527,0,0,1,.394-.2.481.481,0,0,0,.341-.253" transform="translate(-835.027 -243.502)" fill="#fff" fill-rule="evenodd"/>
    <path id="Path_217" data-name="Path 217" d="M1034.184,325.907c0-.282-.394-.141-.525-.029a5.871,5.871,0,0,1-2.051.871,8.569,8.569,0,0,1-1.893.253,4.607,4.607,0,0,1-1.051-.029c-.552-.112-1.682-.225-1.682-1.04,0-.112.342-.14.447-.168a5.859,5.859,0,0,0,1.368-.562,4.337,4.337,0,0,1,1.209-.844c.394-.112.631-.675.867-.984a3.914,3.914,0,0,0,.237-.647c.026-.224-.29-.309-.42-.449l-.316-.113c-.211,0-.394.141-.6.141-1.209,0-2.471,1.631-2.707,1.716-.526.14-1.315,1.828-1.315,2.333a.965.965,0,0,0,.763.9c.341.056.473.338.946.365a1.69,1.69,0,0,1,.657.085,3.363,3.363,0,0,0,1.078.112,2.119,2.119,0,0,0,.42-.056c.4-.141.685.085.973-.112a5.044,5.044,0,0,1,1.287-.309c.316-.057,1-.479,1.262-.535.369-.085,1.026-.45,1.051-.9m-4.388-2.672c0,.085-.08.506-.211.506-.474,0-.71.7-.974.7-.158,0-.236.168-.394.224-.105.056-.263,0-.421,0l-.051-.028a1.549,1.549,0,0,1,.42-.535,10.36,10.36,0,0,1,1.473-.9Z" transform="translate(-881.059 -276.724)" fill="#fff" fill-rule="evenodd"/>
    <path id="Path_218" data-name="Path 218" d="M1089.126,324.179c0-.535-.368-.731-.578-.7s-.158-.14-.473-.056a1.881,1.881,0,0,0-.761.253,15.089,15.089,0,0,1-1.446.788,3.251,3.251,0,0,1-.972.365c-.394.085-.685.562-1.262.675-.5.141-.921.59-1.1.534-.184-.083-.184.029-1.131.394-.946.338-1.024.141-1.234-.084s-.29-.366-.842-.057c-.262.17-.237.7-.761,1.013-.552.309-1.473.168-1.526.618-.053.591.473.338.842.309.394-.056.631-.028.92-.337s.447.056.763.027c.341-.027.972.535,1.262.759.394.282.867-.253,1.157.029a3.378,3.378,0,0,0,1.628-.282c.316-.168,1.184-.112,1.315-.28.105-.17.763-.17,1-.366.236-.224,1.366-.814,1.761-1.1a4.245,4.245,0,0,0,1.13-1.631c.053-.281.341-.365.315-.871m-1.788.732a1.266,1.266,0,0,1-.447,1.152c-.394.338.079.282-.63.675-.685.365-1.026.647-1.315.479-.263-.17-.4.28-1.131.224-.71-.085-.972.421-1.445.224s-1.1.029-1.183-.365c-.105-.421.237-.365.341-.421a3.328,3.328,0,0,0,1.13-.534c.316-.226.815-.169,1.079-.31a2.879,2.879,0,0,1,.867-.45c.315-.056.631-.421.972-.534.369-.112.578-.534,1.026-.562.42,0,.735-.112.735.423" transform="translate(-925.109 -277.78)" fill="#fff" fill-rule="evenodd"/>
    <path id="Path_219" data-name="Path 219" d="M1173.245,37.4a2.1,2.1,0,1,1,2.1,2.143,2.118,2.118,0,0,1-2.1-2.143m3.856,0a1.761,1.761,0,1,0-1.757,1.884A1.848,1.848,0,0,0,1177.1,37.4m-2.762-1.188h1.106c.366,0,.72.177.72.569a.692.692,0,0,1-.5.658l.354.493a2.943,2.943,0,0,0,.474.525v.057h-.4c-.2,0-.354-.43-.752-1.011h-.3v.613c0,.272-.013.272.3.3v.095h-1.012v-.095c.31-.032.3-.032.3-.3v-1.5c0-.278.006-.272-.3-.3Zm.708,1.169h.265c.3,0,.43-.234.43-.569,0-.354-.2-.481-.442-.481h-.253Z" transform="translate(-1007.752 -30.273)" fill="#fff"/>
  </g>
</svg>
