<svg xmlns="http://www.w3.org/2000/svg" xmlns:xlink="http://www.w3.org/1999/xlink" width="30" height="23.094" viewBox="0 0 30 23.094">
  <defs>
    <clipPath id="clip-path">
      <rect id="Rectangle_13" data-name="Rectangle 13" width="30" height="23.094" transform="translate(0 0)" fill="#572500"/>
    </clipPath>
  </defs>
  <g id="Group_12" data-name="Group 12" transform="translate(0 0)">
    <g id="Group_11" data-name="Group 11" clip-path="url(#clip-path)">
      <path id="Path_21" data-name="Path 21" d="M29.119,3.586c-.122,0-.245,0-.368,0q-10.547,0-21.093,0c-.812,0-.656.082-.883-.674A3.7,3.7,0,0,0,3.57.074,19.557,19.557,0,0,0,.695.036.677.677,0,0,0,.119.389.744.744,0,0,0,.813,1.525c.7.016,1.406,0,2.109,0A2.3,2.3,0,0,1,5.346,3.365q1.389,4.944,2.785,9.886a3.857,3.857,0,0,0,4.073,3.07q2.813,0,5.624,0c1.942,0,3.884.007,5.826,0a3.821,3.821,0,0,0,3.836-2.894c.082-.278.161-.557.239-.836q1.11-3.946,2.218-7.892c.188-.675-.129-1.089-.828-1.111m-.963,1.952q-1.046,3.72-2.1,7.438a2.327,2.327,0,0,1-2.429,1.84q-5.508,0-11.015,0a7.03,7.03,0,0,1-1.035-.038,2.207,2.207,0,0,1-1.93-1.666C8.914,10.551,8.2,7.982,7.47,5.42c-.095-.332.055-.338.308-.338q5.039.008,10.077,0H27.8c.481,0,.485,0,.358.452" fill="#572500"/>
      <path id="Path_22" data-name="Path 22" d="M23.766,17.634a2.73,2.73,0,1,0,.057,5.46,2.73,2.73,0,1,0-.057-5.46m.013,3.952a1.222,1.222,0,0,1,.034-2.444,1.222,1.222,0,1,1-.034,2.444" fill="#572500"/>
      <path id="Path_23" data-name="Path 23" d="M11.889,17.634a2.73,2.73,0,0,0-.027,5.46,2.73,2.73,0,1,0,.027-5.46m.018,3.952a1.222,1.222,0,1,1-.028-2.444,1.207,1.207,0,0,1,1.232,1.222,1.225,1.225,0,0,1-1.2,1.222" fill="#572500"/>
    </g>
  </g>
</svg>
